<?xml version="1.0"?>
<svg xmlns="http://www.w3.org/2000/svg" version="1.1" width="753.5294189453125pt" height="554.4705810546875pt" viewBox="-56.364713893217214 -82.53529240103327 753.5294117647059 554.4705882352941" preserveAspectRatio="none" xmlns:xlink="http://www.w3.org/1999/xlink">
  <defs>
  </defs>
  <path d="M178.79998779296875,38.69999694824219 L188.09999084472656,38.69999694824219 " stroke="#6E6E6E" fill="none" stroke-width="1" stroke-opacity="1" />
  <path d="M193.79998779296875,38.69999694824219 L188.0999755859375,40.91999816894531 L188.0999755859375,36.47999954223633 L193.79998779296875,38.69999694824219 " stroke="none" fill="#6E6E6E" fill-rule="evenodd" stroke-width="0" fill-opacity="1" />
  <path d="M193.79998779296875,38.69999694824219 L188.0999755859375,40.91999816894531 L188.0999755859375,36.47999954223633 L193.79998779296875,38.69999694824219 " stroke="#6E6E6E" fill="none" stroke-width="1" stroke-opacity="1" />
  <path d="M178.79998779296875,101.0999984741211 L188.09999084472656,101.0999984741211 " stroke="#6E6E6E" fill="none" stroke-width="1" stroke-opacity="1" />
  <path d="M193.79998779296875,101.09999084472656 L188.0999755859375,103.31999206542969 L188.0999755859375,98.87999725341797 L193.79998779296875,101.09999084472656 " stroke="none" fill="#6E6E6E" fill-rule="evenodd" stroke-width="0" fill-opacity="1" />
  <path d="M193.79998779296875,101.09999084472656 L188.0999755859375,103.31999206542969 L188.0999755859375,98.87999725341797 L193.79998779296875,101.09999084472656 " stroke="#6E6E6E" fill="none" stroke-width="1" stroke-opacity="1" />
  <path d="M178.79998779296875,350.6999816894531 L188.09999084472656,350.6999816894531 " stroke="#6E6E6E" fill="none" stroke-width="1" stroke-opacity="1" />
  <path d="M193.79998779296875,350.6999816894531 L188.0999755859375,352.91998291015625 L188.0999755859375,348.4800109863281 L193.79998779296875,350.6999816894531 " stroke="none" fill="#6E6E6E" fill-rule="evenodd" stroke-width="0" fill-opacity="1" />
  <path d="M193.79998779296875,350.6999816894531 L188.0999755859375,352.91998291015625 L188.0999755859375,348.4800109863281 L193.79998779296875,350.6999816894531 " stroke="#6E6E6E" fill="none" stroke-width="1" stroke-opacity="1" />
  <path d="M178.79998779296875,288.29998779296875 L188.09999084472656,288.29998779296875 " stroke="#6E6E6E" fill="none" stroke-width="1" stroke-opacity="1" />
  <path d="M193.79998779296875,288.2999572753906 L188.0999755859375,290.51995849609375 L188.0999755859375,286.0799865722656 L193.79998779296875,288.2999572753906 " stroke="none" fill="#6E6E6E" fill-rule="evenodd" stroke-width="0" fill-opacity="1" />
  <path d="M193.79998779296875,288.2999572753906 L188.0999755859375,290.51995849609375 L188.0999755859375,286.0799865722656 L193.79998779296875,288.2999572753906 " stroke="#6E6E6E" fill="none" stroke-width="1" stroke-opacity="1" />
  <path d="M178.79998779296875,163.5 L188.09999084472656,163.5 " stroke="#6E6E6E" fill="none" stroke-width="1" stroke-opacity="1" />
  <path d="M193.79998779296875,163.49998474121094 L188.0999755859375,165.71998596191406 L188.0999755859375,161.27999877929688 L193.79998779296875,163.49998474121094 " stroke="none" fill="#6E6E6E" fill-rule="evenodd" stroke-width="0" fill-opacity="1" />
  <path d="M193.79998779296875,163.49998474121094 L188.0999755859375,165.71998596191406 L188.0999755859375,161.27999877929688 L193.79998779296875,163.49998474121094 " stroke="#6E6E6E" fill="none" stroke-width="1" stroke-opacity="1" />
  <path d="M178.79998779296875,225.90000915527344 L188.09999084472656,225.90000915527344 " stroke="#6E6E6E" fill="none" stroke-width="1" stroke-opacity="1" />
  <path d="M193.79998779296875,225.89999389648438 L188.0999755859375,228.1199951171875 L188.0999755859375,223.6800079345703 L193.79998779296875,225.89999389648438 " stroke="none" fill="#6E6E6E" fill-rule="evenodd" stroke-width="0" fill-opacity="1" />
  <path d="M193.79998779296875,225.89999389648438 L188.0999755859375,228.1199951171875 L188.0999755859375,223.6800079345703 L193.79998779296875,225.89999389648438 " stroke="#6E6E6E" fill="none" stroke-width="1" stroke-opacity="1" />
  <path d="M89.39999389648438,38.69999694824219 L98.69998931884766,38.69999694824219 " stroke="#6E6E6E" fill="none" stroke-width="1" stroke-opacity="1" />
  <path d="M104.39999389648438,38.69999694824219 L98.69998931884766,40.91999816894531 L98.69998931884766,36.47999954223633 L104.39999389648438,38.69999694824219 " stroke="none" fill="#6E6E6E" fill-rule="evenodd" stroke-width="0" fill-opacity="1" />
  <path d="M104.39999389648438,38.69999694824219 L98.69998931884766,40.91999816894531 L98.69998931884766,36.47999954223633 L104.39999389648438,38.69999694824219 " stroke="#6E6E6E" fill="none" stroke-width="1" stroke-opacity="1" />
  <path d="M89.39999389648438,288.29998779296875 L98.69998931884766,288.29998779296875 " stroke="#6E6E6E" fill="none" stroke-width="1" stroke-opacity="1" />
  <path d="M104.39999389648438,288.2999572753906 L98.69998931884766,290.51995849609375 L98.69998931884766,286.0799865722656 L104.39999389648438,288.2999572753906 " stroke="none" fill="#6E6E6E" fill-rule="evenodd" stroke-width="0" fill-opacity="1" />
  <path d="M104.39999389648438,288.2999572753906 L98.69998931884766,290.51995849609375 L98.69998931884766,286.0799865722656 L104.39999389648438,288.2999572753906 " stroke="#6E6E6E" fill="none" stroke-width="1" stroke-opacity="1" />
  <path d="M89.39999389648438,101.0999984741211 L98.69998931884766,101.0999984741211 " stroke="#6E6E6E" fill="none" stroke-width="1" stroke-opacity="1" />
  <path d="M104.39999389648438,101.09999084472656 L98.69998931884766,103.31999206542969 L98.69998931884766,98.87999725341797 L104.39999389648438,101.09999084472656 " stroke="none" fill="#6E6E6E" fill-rule="evenodd" stroke-width="0" fill-opacity="1" />
  <path d="M104.39999389648438,101.09999084472656 L98.69998931884766,103.31999206542969 L98.69998931884766,98.87999725341797 L104.39999389648438,101.09999084472656 " stroke="#6E6E6E" fill="none" stroke-width="1" stroke-opacity="1" />
  <path d="M89.39999389648438,350.6999816894531 L98.69998931884766,350.6999816894531 " stroke="#6E6E6E" fill="none" stroke-width="1" stroke-opacity="1" />
  <path d="M104.39999389648438,350.6999816894531 L98.69998931884766,352.91998291015625 L98.69998931884766,348.4800109863281 L104.39999389648438,350.6999816894531 " stroke="none" fill="#6E6E6E" fill-rule="evenodd" stroke-width="0" fill-opacity="1" />
  <path d="M104.39999389648438,350.6999816894531 L98.69998931884766,352.91998291015625 L98.69998931884766,348.4800109863281 L104.39999389648438,350.6999816894531 " stroke="#6E6E6E" fill="none" stroke-width="1" stroke-opacity="1" />
  <path d="M89.39999389648438,163.5 L98.69998931884766,163.5 " stroke="#6E6E6E" fill="none" stroke-width="1" stroke-opacity="1" />
  <path d="M104.39999389648438,163.49998474121094 L98.69998931884766,165.71998596191406 L98.69998931884766,161.27999877929688 L104.39999389648438,163.49998474121094 " stroke="none" fill="#6E6E6E" fill-rule="evenodd" stroke-width="0" fill-opacity="1" />
  <path d="M104.39999389648438,163.49998474121094 L98.69998931884766,165.71998596191406 L98.69998931884766,161.27999877929688 L104.39999389648438,163.49998474121094 " stroke="#6E6E6E" fill="none" stroke-width="1" stroke-opacity="1" />
  <path d="M89.39999389648438,225.90000915527344 L98.69998931884766,225.90000915527344 " stroke="#6E6E6E" fill="none" stroke-width="1" stroke-opacity="1" />
  <path d="M104.39999389648438,225.89999389648438 L98.69998931884766,228.1199951171875 L98.69998931884766,223.6800079345703 L104.39999389648438,225.89999389648438 " stroke="none" fill="#6E6E6E" fill-rule="evenodd" stroke-width="0" fill-opacity="1" />
  <path d="M104.39999389648438,225.89999389648438 L98.69998931884766,228.1199951171875 L98.69998931884766,223.6800079345703 L104.39999389648438,225.89999389648438 " stroke="#6E6E6E" fill="none" stroke-width="1" stroke-opacity="1" />
  <path d="M536.3999633789062,101.0999984741211 L545.699951171875,101.0999984741211 " stroke="#6E6E6E" fill="none" stroke-width="1" stroke-opacity="1" />
  <path d="M551.3999633789062,101.09999084472656 L545.699951171875,103.31999206542969 L545.699951171875,98.87999725341797 L551.3999633789062,101.09999084472656 " stroke="none" fill="#6E6E6E" fill-rule="evenodd" stroke-width="0" fill-opacity="1" />
  <path d="M551.3999633789062,101.09999084472656 L545.699951171875,103.31999206542969 L545.699951171875,98.87999725341797 L551.3999633789062,101.09999084472656 " stroke="#6E6E6E" fill="none" stroke-width="1" stroke-opacity="1" />
  <path d="M357.5999755859375,101.0999984741211 L366.89996337890625,101.0999984741211 " stroke="#6E6E6E" fill="none" stroke-width="1" stroke-opacity="1" />
  <path d="M372.5999755859375,101.09999084472656 L366.89996337890625,103.31999206542969 L366.89996337890625,98.87999725341797 L372.5999755859375,101.09999084472656 " stroke="none" fill="#6E6E6E" fill-rule="evenodd" stroke-width="0" fill-opacity="1" />
  <path d="M372.5999755859375,101.09999084472656 L366.89996337890625,103.31999206542969 L366.89996337890625,98.87999725341797 L372.5999755859375,101.09999084472656 " stroke="#6E6E6E" fill="none" stroke-width="1" stroke-opacity="1" />
  <path d="M268.1999816894531,101.0999984741211 L277.5,101.0999984741211 " stroke="#6E6E6E" fill="none" stroke-width="1" stroke-opacity="1" />
  <path d="M283.1999816894531,101.09999084472656 L277.4999694824219,103.31999206542969 L277.4999694824219,98.87999725341797 L283.1999816894531,101.09999084472656 " stroke="none" fill="#6E6E6E" fill-rule="evenodd" stroke-width="0" fill-opacity="1" />
  <path d="M283.1999816894531,101.09999084472656 L277.4999694824219,103.31999206542969 L277.4999694824219,98.87999725341797 L283.1999816894531,101.09999084472656 " stroke="#6E6E6E" fill="none" stroke-width="1" stroke-opacity="1" />
  <path d="M357.5999755859375,288.29998779296875 L366.89996337890625,288.29998779296875 " stroke="#6E6E6E" fill="none" stroke-width="1" stroke-opacity="1" />
  <path d="M372.5999755859375,288.2999572753906 L366.89996337890625,290.51995849609375 L366.89996337890625,286.0799865722656 L372.5999755859375,288.2999572753906 " stroke="none" fill="#6E6E6E" fill-rule="evenodd" stroke-width="0" fill-opacity="1" />
  <path d="M372.5999755859375,288.2999572753906 L366.89996337890625,290.51995849609375 L366.89996337890625,286.0799865722656 L372.5999755859375,288.2999572753906 " stroke="#6E6E6E" fill="none" stroke-width="1" stroke-opacity="1" />
  <path d="M420.578369140625,265.7304382324219 L485.4253234863281,129.9435577392578 " stroke="#6E6E6E" fill="none" stroke-width="1" stroke-opacity="1" />
  <path d="M487.8817138671875,124.79999542236328 L487.4286193847656,130.90025329589844 L483.42205810546875,128.9868621826172 L487.8817138671875,124.79999542236328 " stroke="none" fill="#6E6E6E" fill-rule="evenodd" stroke-width="0" fill-opacity="1" />
  <path d="M487.8817138671875,124.79999542236328 L487.4286193847656,130.90025329589844 L483.42205810546875,128.9868621826172 L487.8817138671875,124.79999542236328 " stroke="#6E6E6E" fill="none" stroke-width="1" stroke-opacity="1" />
  <path d="M255.99542236328125,243.3464813232422 L283.16217041015625,262.3085021972656 " stroke="#6E6E6E" fill="none" stroke-width="1" stroke-opacity="1" />
  <path d="M287.8362121582031,265.5708923339844 L281.89154052734375,264.12890625 L284.43280029296875,260.4880676269531 L287.8362121582031,265.5708923339844 " stroke="none" fill="#6E6E6E" fill-rule="evenodd" stroke-width="0" fill-opacity="1" />
  <path d="M287.8362121582031,265.5708923339844 L281.89154052734375,264.12890625 L284.43280029296875,260.4880676269531 L287.8362121582031,265.5708923339844 " stroke="#6E6E6E" fill="none" stroke-width="1" stroke-opacity="1" />
  <path d="M268.1999816894531,288.29998779296875 L277.5,288.29998779296875 " stroke="#6E6E6E" fill="none" stroke-width="1" stroke-opacity="1" />
  <path d="M283.1999816894531,288.2999572753906 L277.4999694824219,290.51995849609375 L277.4999694824219,286.0799865722656 L283.1999816894531,288.2999572753906 " stroke="none" fill="#6E6E6E" fill-rule="evenodd" stroke-width="0" fill-opacity="1" />
  <path d="M283.1999816894531,288.2999572753906 L277.4999694824219,290.51995849609375 L277.4999694824219,286.0799865722656 L283.1999816894531,288.2999572753906 " stroke="#6E6E6E" fill="none" stroke-width="1" stroke-opacity="1" />
  <path d="M255.99542236328125,333.2535095214844 L283.16217041015625,314.2914733886719 " stroke="#6E6E6E" fill="none" stroke-width="1" stroke-opacity="1" />
  <path d="M287.8362121582031,311.029052734375 L284.43280029296875,316.1119079589844 L281.89154052734375,312.4710693359375 L287.8362121582031,311.029052734375 " stroke="none" fill="#6E6E6E" fill-rule="evenodd" stroke-width="0" fill-opacity="1" />
  <path d="M287.8362121582031,311.029052734375 L284.43280029296875,316.1119079589844 L281.89154052734375,312.4710693359375 L287.8362121582031,311.029052734375 " stroke="#6E6E6E" fill="none" stroke-width="1" stroke-opacity="1" />
  <path d="M447,101.0999984741211 L456.2999572753906,101.0999984741211 " stroke="#6E6E6E" fill="none" stroke-width="1" stroke-opacity="1" />
  <path d="M462,101.09999084472656 L456.29998779296875,103.31999206542969 L456.29998779296875,98.87999725341797 L462,101.09999084472656 " stroke="none" fill="#6E6E6E" fill-rule="evenodd" stroke-width="0" fill-opacity="1" />
  <path d="M462,101.09999084472656 L456.29998779296875,103.31999206542969 L456.29998779296875,98.87999725341797 L462,101.09999084472656 " stroke="#6E6E6E" fill="none" stroke-width="1" stroke-opacity="1" />
  <path d="M255.99542236328125,56.14647674560547 L283.16217041015625,75.10851287841797 " stroke="#6E6E6E" fill="none" stroke-width="1" stroke-opacity="1" />
  <path d="M287.8362121582031,78.37092590332031 L281.89154052734375,76.92892456054688 L284.43280029296875,73.28809356689453 L287.8362121582031,78.37092590332031 " stroke="none" fill="#6E6E6E" fill-rule="evenodd" stroke-width="0" fill-opacity="1" />
  <path d="M287.8362121582031,78.37092590332031 L281.89154052734375,76.92892456054688 L284.43280029296875,73.28809356689453 L287.8362121582031,78.37092590332031 " stroke="#6E6E6E" fill="none" stroke-width="1" stroke-opacity="1" />
  <path d="M255.99542236328125,146.05352783203125 L283.16217041015625,127.09149169921875 " stroke="#6E6E6E" fill="none" stroke-width="1" stroke-opacity="1" />
  <path d="M287.8362121582031,123.82906341552734 L284.43280029296875,128.91189575195312 L281.89154052734375,125.27106475830078 L287.8362121582031,123.82906341552734 " stroke="none" fill="#6E6E6E" fill-rule="evenodd" stroke-width="0" fill-opacity="1" />
  <path d="M287.8362121582031,123.82906341552734 L284.43280029296875,128.91189575195312 L281.89154052734375,125.27106475830078 L287.8362121582031,123.82906341552734 " stroke="#6E6E6E" fill="none" stroke-width="1" stroke-opacity="1" />
  <path d="M89.39998626708984,38.69999313354492 C89.39998626708984,51.78913879394531 72.74497985839844,62.399993896484375 52.20001220703125,62.39999771118164 C31.655027389526367,62.400001525878906 15.000014305114746,51.78915786743164 14.99999713897705,38.70001220703125 L14.999994277954102,38.700016021728516 C14.999977111816406,25.610868453979492 31.65497398376465,15.000008583068848 52.1999626159668,15 C72.74494934082031,14.99998950958252 89.39996337890625,25.61083221435547 89.39998626708984,38.69999694824219 C89.39998626708984,38.69999694824219 89.39998626708984,38.69999694824219 89.39998626708984,38.69999694824219 " stroke="none" fill="#70AECC" fill-rule="evenodd" stroke-width="0" fill-opacity="1" />
  <text x="1.2926890850067139" y="35.284881591796875" dx="0" dy="0" font-family="Segoe UI" font-size="6.600000157356266pt" fill="#000000" style="text-anchor:start" transform="matrix(0.750000 0.000000 0.000000 0.750000 15 15)">Downtown_Seattle</text>
  <path d="M89.39998626708984,38.69999313354492 C89.39998626708984,51.78913879394531 72.74497985839844,62.399993896484375 52.20001220703125,62.39999771118164 C31.655027389526367,62.400001525878906 15.000014305114746,51.78915786743164 14.99999713897705,38.70001220703125 L14.999994277954102,38.700016021728516 C14.999977111816406,25.610868453979492 31.65497398376465,15.000008583068848 52.1999626159668,15 C72.74494934082031,14.99998950958252 89.39996337890625,25.61083221435547 89.39998626708984,38.69999694824219 C89.39998626708984,38.69999694824219 89.39998626708984,38.69999694824219 89.39998626708984,38.69999694824219 " stroke="none" fill="none" stroke-width="0.6" stroke-opacity="0" />
  <path d="M112.9039306640625,77.4000015258789 L170.29605102539062,77.4000015258789 L170.29603576660156,77.4000015258789 C174.99261474609375,77.39999389648438 178.7999725341797,81.20732879638672 178.7999725341797,85.9039306640625 C178.7999725341797,85.9039306640625 178.7999725341797,85.90393829345703 178.7999725341797,85.90393829345703 L178.79998779296875,85.90393829345703 L178.79998779296875,116.29606628417969 L178.7999725341797,116.29605865478516 C178.7999725341797,120.9926528930664 174.99264526367188,124.79999542236328 170.29605102539062,124.79999542236328 L170.29605102539062,124.79999542236328 L112.9039306640625,124.79999542236328 L112.9039306640625,124.79999542236328 C108.20733642578125,124.79999542236328 104.39999389648438,120.99266052246094 104.39999389648438,116.29606628417969 L104.39999389648438,85.90393829345703 L104.39998626708984,85.90393829345703 C104.39998626708984,81.20734405517578 108.20732116699219,77.4000015258789 112.90391540527344,77.39999389648438 " stroke="none" fill="#F2E279" fill-rule="evenodd" stroke-width="0" fill-opacity="1" />
  <text x="24.866689682006836" y="35.284881591796875" dx="0" dy="0" font-family="Segoe UI" font-size="6.600000157356266pt" fill="#000000" style="text-anchor:start" transform="matrix(0.750000 0.000000 0.000000 0.750000 104.39999389648438 77.4000015258789)">Buffer (2)</text>
  <path d="M112.9039306640625,77.4000015258789 L170.29605102539062,77.4000015258789 L170.29603576660156,77.4000015258789 C174.99261474609375,77.39999389648438 178.7999725341797,81.20732879638672 178.7999725341797,85.9039306640625 C178.7999725341797,85.9039306640625 178.7999725341797,85.90393829345703 178.7999725341797,85.90393829345703 L178.79998779296875,85.90393829345703 L178.79998779296875,116.29606628417969 L178.7999725341797,116.29605865478516 C178.7999725341797,120.9926528930664 174.99264526367188,124.79999542236328 170.29605102539062,124.79999542236328 L170.29605102539062,124.79999542236328 L112.9039306640625,124.79999542236328 L112.9039306640625,124.79999542236328 C108.20733642578125,124.79999542236328 104.39999389648438,120.99266052246094 104.39999389648438,116.29606628417969 L104.39999389648438,85.90393829345703 L104.39998626708984,85.90393829345703 C104.39998626708984,81.20734405517578 108.20732116699219,77.4000015258789 112.90391540527344,77.39999389648438 " stroke="none" fill="none" stroke-width="0.6" stroke-opacity="0" />
  <path d="M268.199951171875,101.09999084472656 C268.199951171875,114.18914031982422 251.5449676513672,124.79999542236328 231,124.79999542236328 C210.4550018310547,124.80000305175781 193.79998779296875,114.18915557861328 193.7999725341797,101.10001373291016 L193.7999725341797,101.10001373291016 C193.79995727539062,88.0108642578125 210.4549560546875,77.40000915527344 230.99993896484375,77.4000015258789 C251.54493713378906,77.39998626708984 268.199951171875,88.01083374023438 268.199951171875,101.0999984741211 C268.199951171875,101.0999984741211 268.199951171875,101.0999984741211 268.199951171875,101.0999984741211 " stroke="none" fill="#83CC7C" fill-rule="evenodd" stroke-width="0" fill-opacity="1" />
  <text x="15.117188453674316" y="35.284881591796875" dx="0" dy="0" font-family="Segoe UI" font-size="6.600000157356266pt" fill="#000000" style="text-anchor:start" transform="matrix(0.750000 0.000000 0.000000 0.750000 193.79998779296875 77.4000015258789)">intrstat_Buffer</text>
  <path d="M268.199951171875,101.09999084472656 C268.199951171875,114.18914031982422 251.5449676513672,124.79999542236328 231,124.79999542236328 C210.4550018310547,124.80000305175781 193.79998779296875,114.18915557861328 193.7999725341797,101.10001373291016 L193.7999725341797,101.10001373291016 C193.79995727539062,88.0108642578125 210.4549560546875,77.40000915527344 230.99993896484375,77.4000015258789 C251.54493713378906,77.39998626708984 268.199951171875,88.01083374023438 268.199951171875,101.0999984741211 C268.199951171875,101.0999984741211 268.199951171875,101.0999984741211 268.199951171875,101.0999984741211 " stroke="none" fill="none" stroke-width="0.6" stroke-opacity="0" />
  <path d="M112.9039306640625,327 L170.29605102539062,327 L170.29603576660156,327 C174.99261474609375,326.9999694824219 178.7999725341797,330.80731201171875 178.7999725341797,335.50390625 C178.7999725341797,335.50390625 178.7999725341797,335.5039367675781 178.7999725341797,335.5039367675781 L178.79998779296875,335.5039367675781 L178.79998779296875,365.89605712890625 L178.7999725341797,365.89605712890625 C178.7999725341797,370.5926513671875 174.99264526367188,374.3999938964844 170.29605102539062,374.3999938964844 L170.29605102539062,374.3999938964844 L112.9039306640625,374.3999938964844 L112.9039306640625,374.3999938964844 C108.20733642578125,374.3999938964844 104.39999389648438,370.5926513671875 104.39999389648438,365.89605712890625 L104.39999389648438,335.5039367675781 L104.39998626708984,335.5039367675781 C104.39998626708984,330.8073425292969 108.20732116699219,327 112.90391540527344,326.9999694824219 " stroke="none" fill="#F2E279" fill-rule="evenodd" stroke-width="0" fill-opacity="1" />
  <text x="24.866689682006836" y="35.284881591796875" dx="0" dy="0" font-family="Segoe UI" font-size="6.600000157356266pt" fill="#000000" style="text-anchor:start" transform="matrix(0.750000 0.000000 0.000000 0.750000 104.39999389648438 327)">Buffer (3)</text>
  <path d="M112.9039306640625,327 L170.29605102539062,327 L170.29603576660156,327 C174.99261474609375,326.9999694824219 178.7999725341797,330.80731201171875 178.7999725341797,335.50390625 C178.7999725341797,335.50390625 178.7999725341797,335.5039367675781 178.7999725341797,335.5039367675781 L178.79998779296875,335.5039367675781 L178.79998779296875,365.89605712890625 L178.7999725341797,365.89605712890625 C178.7999725341797,370.5926513671875 174.99264526367188,374.3999938964844 170.29605102539062,374.3999938964844 L170.29605102539062,374.3999938964844 L112.9039306640625,374.3999938964844 L112.9039306640625,374.3999938964844 C108.20733642578125,374.3999938964844 104.39999389648438,370.5926513671875 104.39999389648438,365.89605712890625 L104.39999389648438,335.5039367675781 L104.39998626708984,335.5039367675781 C104.39998626708984,330.8073425292969 108.20732116699219,327 112.90391540527344,326.9999694824219 " stroke="none" fill="none" stroke-width="0.6" stroke-opacity="0" />
  <path d="M268.199951171875,350.6999816894531 C268.199951171875,363.78912353515625 251.5449676513672,374.3999938964844 231,374.3999938964844 C210.4550018310547,374.3999938964844 193.79998779296875,363.7891540527344 193.7999725341797,350.70001220703125 L193.7999725341797,350.70001220703125 C193.79995727539062,337.61083984375 210.4549560546875,327 230.99993896484375,327 C251.54493713378906,326.9999694824219 268.199951171875,337.6108093261719 268.199951171875,350.6999816894531 C268.199951171875,350.6999816894531 268.199951171875,350.6999816894531 268.199951171875,350.6999816894531 " stroke="none" fill="#83CC7C" fill-rule="evenodd" stroke-width="0" fill-opacity="1" />
  <text x="3.167022228240967" y="35.284881591796875" dx="0" dy="0" font-family="Segoe UI" font-size="6.600000157356266pt" fill="#000000" style="text-anchor:start" transform="matrix(0.750000 0.000000 0.000000 0.750000 193.79998779296875 327)">volcanic_hazards</text>
  <text x="82.72319030761719" y="35.284881591796875" dx="0" dy="0" font-family="Segoe UI" font-size="6.600000157356266pt" fill="#000000" style="text-anchor:start" transform="matrix(0.750000 0.000000 0.000000 0.750000 193.79998779296875 327)"> ...</text>
  <path d="M268.199951171875,350.6999816894531 C268.199951171875,363.78912353515625 251.5449676513672,374.3999938964844 231,374.3999938964844 C210.4550018310547,374.3999938964844 193.79998779296875,363.7891540527344 193.7999725341797,350.70001220703125 L193.7999725341797,350.70001220703125 C193.79995727539062,337.61083984375 210.4549560546875,327 230.99993896484375,327 C251.54493713378906,326.9999694824219 268.199951171875,337.6108093261719 268.199951171875,350.6999816894531 C268.199951171875,350.6999816894531 268.199951171875,350.6999816894531 268.199951171875,350.6999816894531 " stroke="none" fill="none" stroke-width="0.6" stroke-opacity="0" />
  <path d="M112.9039306640625,264.6000061035156 L170.29605102539062,264.6000061035156 L170.29603576660156,264.6000061035156 C174.99261474609375,264.5999755859375 178.7999725341797,268.4073181152344 178.7999725341797,273.1039123535156 C178.7999725341797,273.1039123535156 178.7999725341797,273.10394287109375 178.7999725341797,273.10394287109375 L178.79998779296875,273.10394287109375 L178.79998779296875,303.4960632324219 L178.7999725341797,303.4960632324219 C178.7999725341797,308.1926574707031 174.99264526367188,312 170.29605102539062,312 L170.29605102539062,312 L112.9039306640625,312 L112.9039306640625,312 C108.20733642578125,312 104.39999389648438,308.1926574707031 104.39999389648438,303.4960632324219 L104.39999389648438,273.10394287109375 L104.39998626708984,273.10394287109375 C104.39998626708984,268.4073486328125 108.20732116699219,264.6000061035156 112.90391540527344,264.5999755859375 " stroke="none" fill="#F2E279" fill-rule="evenodd" stroke-width="0" fill-opacity="1" />
  <text x="24.866689682006836" y="35.284881591796875" dx="0" dy="0" font-family="Segoe UI" font-size="6.600000157356266pt" fill="#000000" style="text-anchor:start" transform="matrix(0.750000 0.000000 0.000000 0.750000 104.39999389648438 264.6000061035156)">Buffer (4)</text>
  <path d="M112.9039306640625,264.6000061035156 L170.29605102539062,264.6000061035156 L170.29603576660156,264.6000061035156 C174.99261474609375,264.5999755859375 178.7999725341797,268.4073181152344 178.7999725341797,273.1039123535156 C178.7999725341797,273.1039123535156 178.7999725341797,273.10394287109375 178.7999725341797,273.10394287109375 L178.79998779296875,273.10394287109375 L178.79998779296875,303.4960632324219 L178.7999725341797,303.4960632324219 C178.7999725341797,308.1926574707031 174.99264526367188,312 170.29605102539062,312 L170.29605102539062,312 L112.9039306640625,312 L112.9039306640625,312 C108.20733642578125,312 104.39999389648438,308.1926574707031 104.39999389648438,303.4960632324219 L104.39999389648438,273.10394287109375 L104.39998626708984,273.10394287109375 C104.39998626708984,268.4073486328125 108.20732116699219,264.6000061035156 112.90391540527344,264.5999755859375 " stroke="none" fill="none" stroke-width="0.6" stroke-opacity="0" />
  <path d="M268.199951171875,288.29998779296875 C268.199951171875,301.3891296386719 251.5449676513672,312 231,312 C210.4550018310547,312 193.79998779296875,301.38916015625 193.7999725341797,288.3000183105469 L193.7999725341797,288.3000183105469 C193.79995727539062,275.2108459472656 210.4549560546875,264.6000061035156 230.99993896484375,264.6000061035156 C251.54493713378906,264.5999755859375 268.199951171875,275.2108154296875 268.199951171875,288.29998779296875 C268.199951171875,288.29998779296875 268.199951171875,288.29998779296875 268.199951171875,288.29998779296875 " stroke="none" fill="#83CC7C" fill-rule="evenodd" stroke-width="0" fill-opacity="1" />
  <text x="2.205355644226074" y="35.284881591796875" dx="0" dy="0" font-family="Segoe UI" font-size="6.600000157356266pt" fill="#000000" style="text-anchor:start" transform="matrix(0.750000 0.000000 0.000000 0.750000 193.79998779296875 264.6000061035156)">Tsunami_Hazard_</text>
  <text x="83.84319305419922" y="35.284881591796875" dx="0" dy="0" font-family="Segoe UI" font-size="6.600000157356266pt" fill="#000000" style="text-anchor:start" transform="matrix(0.750000 0.000000 0.000000 0.750000 193.79998779296875 264.6000061035156)"> ...</text>
  <path d="M268.199951171875,288.29998779296875 C268.199951171875,301.3891296386719 251.5449676513672,312 231,312 C210.4550018310547,312 193.79998779296875,301.38916015625 193.7999725341797,288.3000183105469 L193.7999725341797,288.3000183105469 C193.79995727539062,275.2108459472656 210.4549560546875,264.6000061035156 230.99993896484375,264.6000061035156 C251.54493713378906,264.5999755859375 268.199951171875,275.2108154296875 268.199951171875,288.29998779296875 C268.199951171875,288.29998779296875 268.199951171875,288.29998779296875 268.199951171875,288.29998779296875 " stroke="none" fill="none" stroke-width="0.6" stroke-opacity="0" />
  <path d="M112.9039306640625,139.8000030517578 L170.29605102539062,139.8000030517578 L170.29603576660156,139.8000030517578 C174.99261474609375,139.79998779296875 178.7999725341797,143.60733032226562 178.7999725341797,148.30392456054688 C178.7999725341797,148.30392456054688 178.7999725341797,148.30393981933594 178.7999725341797,148.30393981933594 L178.79998779296875,148.30393981933594 L178.79998779296875,178.69606018066406 L178.7999725341797,178.69606018066406 C178.7999725341797,183.3926544189453 174.99264526367188,187.1999969482422 170.29605102539062,187.1999969482422 L170.29605102539062,187.1999969482422 L112.9039306640625,187.1999969482422 L112.9039306640625,187.1999969482422 C108.20733642578125,187.1999969482422 104.39999389648438,183.3926544189453 104.39999389648438,178.69606018066406 L104.39999389648438,148.30393981933594 L104.39998626708984,148.30393981933594 C104.39998626708984,143.6073455810547 108.20732116699219,139.8000030517578 112.90391540527344,139.79998779296875 " stroke="none" fill="#F2E279" fill-rule="evenodd" stroke-width="0" fill-opacity="1" />
  <text x="24.866689682006836" y="35.284881591796875" dx="0" dy="0" font-family="Segoe UI" font-size="6.600000157356266pt" fill="#000000" style="text-anchor:start" transform="matrix(0.750000 0.000000 0.000000 0.750000 104.39999389648438 139.8000030517578)">Buffer (5)</text>
  <path d="M112.9039306640625,139.8000030517578 L170.29605102539062,139.8000030517578 L170.29603576660156,139.8000030517578 C174.99261474609375,139.79998779296875 178.7999725341797,143.60733032226562 178.7999725341797,148.30392456054688 C178.7999725341797,148.30392456054688 178.7999725341797,148.30393981933594 178.7999725341797,148.30393981933594 L178.79998779296875,148.30393981933594 L178.79998779296875,178.69606018066406 L178.7999725341797,178.69606018066406 C178.7999725341797,183.3926544189453 174.99264526367188,187.1999969482422 170.29605102539062,187.1999969482422 L170.29605102539062,187.1999969482422 L112.9039306640625,187.1999969482422 L112.9039306640625,187.1999969482422 C108.20733642578125,187.1999969482422 104.39999389648438,183.3926544189453 104.39999389648438,178.69606018066406 L104.39999389648438,148.30393981933594 L104.39998626708984,148.30393981933594 C104.39998626708984,143.6073455810547 108.20732116699219,139.8000030517578 112.90391540527344,139.79998779296875 " stroke="none" fill="none" stroke-width="0.6" stroke-opacity="0" />
  <path d="M268.199951171875,163.49998474121094 C268.199951171875,176.58914184570312 251.5449676513672,187.1999969482422 231,187.1999969482422 C210.4550018310547,187.1999969482422 193.79998779296875,176.5891571044922 193.7999725341797,163.50001525878906 L193.7999725341797,163.50001525878906 C193.79995727539062,150.41085815429688 210.4549560546875,139.8000030517578 230.99993896484375,139.8000030517578 C251.54493713378906,139.79998779296875 268.199951171875,150.41082763671875 268.199951171875,163.5 C268.199951171875,163.5 268.199951171875,163.5 268.199951171875,163.5 " stroke="none" fill="#83CC7C" fill-rule="evenodd" stroke-width="0" fill-opacity="1" />
  <text x="2.911022186279297" y="35.284881591796875" dx="0" dy="0" font-family="Segoe UI" font-size="6.600000157356266pt" fill="#000000" style="text-anchor:start" transform="matrix(0.750000 0.000000 0.000000 0.750000 193.79998779296875 139.8000030517578)">Seattle_area_Cos</text>
  <text x="82.68985748291016" y="35.284881591796875" dx="0" dy="0" font-family="Segoe UI" font-size="6.600000157356266pt" fill="#000000" style="text-anchor:start" transform="matrix(0.750000 0.000000 0.000000 0.750000 193.79998779296875 139.8000030517578)"> ...</text>
  <path d="M268.199951171875,163.49998474121094 C268.199951171875,176.58914184570312 251.5449676513672,187.1999969482422 231,187.1999969482422 C210.4550018310547,187.1999969482422 193.79998779296875,176.5891571044922 193.7999725341797,163.50001525878906 L193.7999725341797,163.50001525878906 C193.79995727539062,150.41085815429688 210.4549560546875,139.8000030517578 230.99993896484375,139.8000030517578 C251.54493713378906,139.79998779296875 268.199951171875,150.41082763671875 268.199951171875,163.5 C268.199951171875,163.5 268.199951171875,163.5 268.199951171875,163.5 " stroke="none" fill="none" stroke-width="0.6" stroke-opacity="0" />
  <path d="M112.9039306640625,202.1999969482422 L170.29605102539062,202.1999969482422 L170.29603576660156,202.1999969482422 C174.99261474609375,202.19998168945312 178.7999725341797,206.00732421875 178.7999725341797,210.70391845703125 C178.7999725341797,210.70391845703125 178.7999725341797,210.7039337158203 178.7999725341797,210.7039337158203 L178.79998779296875,210.7039337158203 L178.79998779296875,241.09605407714844 L178.7999725341797,241.09605407714844 C178.7999725341797,245.7926483154297 174.99264526367188,249.59999084472656 170.29605102539062,249.59999084472656 L170.29605102539062,249.59999084472656 L112.9039306640625,249.59999084472656 L112.9039306640625,249.59999084472656 C108.20733642578125,249.59999084472656 104.39999389648438,245.7926483154297 104.39999389648438,241.09605407714844 L104.39999389648438,210.7039337158203 L104.39998626708984,210.7039337158203 C104.39998626708984,206.00733947753906 108.20732116699219,202.1999969482422 112.90391540527344,202.19998168945312 " stroke="none" fill="#F2E279" fill-rule="evenodd" stroke-width="0" fill-opacity="1" />
  <text x="24.866689682006836" y="35.284881591796875" dx="0" dy="0" font-family="Segoe UI" font-size="6.600000157356266pt" fill="#000000" style="text-anchor:start" transform="matrix(0.750000 0.000000 0.000000 0.750000 104.39999389648438 202.1999969482422)">Buffer (6)</text>
  <path d="M112.9039306640625,202.1999969482422 L170.29605102539062,202.1999969482422 L170.29603576660156,202.1999969482422 C174.99261474609375,202.19998168945312 178.7999725341797,206.00732421875 178.7999725341797,210.70391845703125 C178.7999725341797,210.70391845703125 178.7999725341797,210.7039337158203 178.7999725341797,210.7039337158203 L178.79998779296875,210.7039337158203 L178.79998779296875,241.09605407714844 L178.7999725341797,241.09605407714844 C178.7999725341797,245.7926483154297 174.99264526367188,249.59999084472656 170.29605102539062,249.59999084472656 L170.29605102539062,249.59999084472656 L112.9039306640625,249.59999084472656 L112.9039306640625,249.59999084472656 C108.20733642578125,249.59999084472656 104.39999389648438,245.7926483154297 104.39999389648438,241.09605407714844 L104.39999389648438,210.7039337158203 L104.39998626708984,210.7039337158203 C104.39998626708984,206.00733947753906 108.20732116699219,202.1999969482422 112.90391540527344,202.19998168945312 " stroke="none" fill="none" stroke-width="0.6" stroke-opacity="0" />
  <path d="M268.199951171875,225.8999786376953 C268.199951171875,238.9891357421875 251.5449676513672,249.59999084472656 231,249.59999084472656 C210.4550018310547,249.59999084472656 193.79998779296875,238.98915100097656 193.7999725341797,225.90000915527344 L193.7999725341797,225.90000915527344 C193.79995727539062,212.81085205078125 210.4549560546875,202.1999969482422 230.99993896484375,202.1999969482422 C251.54493713378906,202.19998168945312 268.199951171875,212.81082153320312 268.199951171875,225.89999389648438 C268.199951171875,225.89999389648438 268.199951171875,225.89999389648438 268.199951171875,225.89999389648438 " stroke="none" fill="#83CC7C" fill-rule="evenodd" stroke-width="0" fill-opacity="1" />
  <text x="2.141022205352783" y="35.284881591796875" dx="0" dy="0" font-family="Segoe UI" font-size="6.600000157356266pt" fill="#000000" style="text-anchor:start" transform="matrix(0.750000 0.000000 0.000000 0.750000 193.79998779296875 202.1999969482422)">Seismogenic_Fau</text>
  <text x="83.46318817138672" y="35.284881591796875" dx="0" dy="0" font-family="Segoe UI" font-size="6.600000157356266pt" fill="#000000" style="text-anchor:start" transform="matrix(0.750000 0.000000 0.000000 0.750000 193.79998779296875 202.1999969482422)"> ...</text>
  <path d="M268.199951171875,225.8999786376953 C268.199951171875,238.9891357421875 251.5449676513672,249.59999084472656 231,249.59999084472656 C210.4550018310547,249.59999084472656 193.79998779296875,238.98915100097656 193.7999725341797,225.90000915527344 L193.7999725341797,225.90000915527344 C193.79995727539062,212.81085205078125 210.4549560546875,202.1999969482422 230.99993896484375,202.1999969482422 C251.54493713378906,202.19998168945312 268.199951171875,212.81082153320312 268.199951171875,225.89999389648438 C268.199951171875,225.89999389648438 268.199951171875,225.89999389648438 268.199951171875,225.89999389648438 " stroke="none" fill="none" stroke-width="0.6" stroke-opacity="0" />
  <path d="M470.5039367675781,77.4000015258789 L527.8960571289062,77.4000015258789 L527.89599609375,77.4000015258789 C532.5925903320312,77.39999389648438 536.3999633789062,81.20732879638672 536.3999633789062,85.9039306640625 C536.3999633789062,85.9039306640625 536.3999633789062,85.90393829345703 536.3999633789062,85.90393829345703 L536.3999633789062,85.90393829345703 L536.3999633789062,116.29606628417969 L536.3999633789062,116.29605865478516 C536.3999633789062,120.9926528930664 532.5926513671875,124.79999542236328 527.8960571289062,124.79999542236328 L527.8960571289062,124.79999542236328 L470.5039367675781,124.79999542236328 L470.5039367675781,124.79999542236328 C465.8073425292969,124.79999542236328 462,120.99266052246094 462,116.29606628417969 L462,85.90393829345703 L461.9999694824219,85.90393829345703 C461.9999694824219,81.20734405517578 465.80731201171875,77.4000015258789 470.50390625,77.39999389648438 " stroke="none" fill="#F2E279" fill-rule="evenodd" stroke-width="0" fill-opacity="1" />
  <text x="27.031856536865234" y="35.284881591796875" dx="0" dy="0" font-family="Segoe UI" font-size="6.600000157356266pt" fill="#000000" style="text-anchor:start" transform="matrix(0.750000 0.000000 0.000000 0.750000 462 77.4000015258789)">Erase (3)</text>
  <path d="M470.5039367675781,77.4000015258789 L527.8960571289062,77.4000015258789 L527.89599609375,77.4000015258789 C532.5925903320312,77.39999389648438 536.3999633789062,81.20732879638672 536.3999633789062,85.9039306640625 C536.3999633789062,85.9039306640625 536.3999633789062,85.90393829345703 536.3999633789062,85.90393829345703 L536.3999633789062,85.90393829345703 L536.3999633789062,116.29606628417969 L536.3999633789062,116.29605865478516 C536.3999633789062,120.9926528930664 532.5926513671875,124.79999542236328 527.8960571289062,124.79999542236328 L527.8960571289062,124.79999542236328 L470.5039367675781,124.79999542236328 L470.5039367675781,124.79999542236328 C465.8073425292969,124.79999542236328 462,120.99266052246094 462,116.29606628417969 L462,85.90393829345703 L461.9999694824219,85.90393829345703 C461.9999694824219,81.20734405517578 465.80731201171875,77.4000015258789 470.50390625,77.39999389648438 " stroke="none" fill="none" stroke-width="0.6" stroke-opacity="0" />
  <path d="M625.7999267578125,101.09999084472656 C625.7999267578125,114.18914031982422 609.1448974609375,124.79999542236328 588.5999755859375,124.79999542236328 C568.054931640625,124.80000305175781 551.3999633789062,114.18915557861328 551.39990234375,101.10001373291016 L551.39990234375,101.10001373291016 C551.39990234375,88.0108642578125 568.054931640625,77.40000915527344 588.5999145507812,77.4000015258789 C609.1448974609375,77.39998626708984 625.7999267578125,88.01083374023438 625.7999267578125,101.0999984741211 C625.7999267578125,101.0999984741211 625.7999267578125,101.0999984741211 625.7999267578125,101.0999984741211 " stroke="none" fill="#83CC7C" fill-rule="evenodd" stroke-width="0" fill-opacity="1" />
  <text x="20.011022567749023" y="35.284881591796875" dx="0" dy="0" font-family="Segoe UI" font-size="6.600000157356266pt" fill="#000000" style="text-anchor:start" transform="matrix(0.750000 0.000000 0.000000 0.750000 551.3999633789062 77.4000015258789)">LivingAreas</text>
  <path d="M625.7999267578125,101.09999084472656 C625.7999267578125,114.18914031982422 609.1448974609375,124.79999542236328 588.5999755859375,124.79999542236328 C568.054931640625,124.80000305175781 551.3999633789062,114.18915557861328 551.39990234375,101.10001373291016 L551.39990234375,101.10001373291016 C551.39990234375,88.0108642578125 568.054931640625,77.40000915527344 588.5999145507812,77.4000015258789 C609.1448974609375,77.39998626708984 625.7999267578125,88.01083374023438 625.7999267578125,101.0999984741211 C625.7999267578125,101.0999984741211 625.7999267578125,101.0999984741211 625.7999267578125,101.0999984741211 " stroke="none" fill="none" stroke-width="0.6" stroke-opacity="0" />
  <path d="M89.39998626708984,101.09999084472656 C89.39998626708984,114.18914031982422 72.74497985839844,124.79999542236328 52.20001220703125,124.79999542236328 C31.655027389526367,124.80000305175781 15.000014305114746,114.18915557861328 14.99999713897705,101.10001373291016 L14.999994277954102,101.10001373291016 C14.999977111816406,88.0108642578125 31.65497398376465,77.40000915527344 52.1999626159668,77.4000015258789 C72.74494934082031,77.39998626708984 89.39996337890625,88.01083374023438 89.39998626708984,101.0999984741211 C89.39998626708984,101.0999984741211 89.39998626708984,101.0999984741211 89.39998626708984,101.0999984741211 " stroke="none" fill="#70AECC" fill-rule="evenodd" stroke-width="0" fill-opacity="1" />
  <text x="31.89719009399414" y="35.284881591796875" dx="0" dy="0" font-family="Segoe UI" font-size="6.600000157356266pt" fill="#000000" style="text-anchor:start" transform="matrix(0.750000 0.000000 0.000000 0.750000 15 77.4000015258789)">intrstat</text>
  <path d="M89.39998626708984,101.09999084472656 C89.39998626708984,114.18914031982422 72.74497985839844,124.79999542236328 52.20001220703125,124.79999542236328 C31.655027389526367,124.80000305175781 15.000014305114746,114.18915557861328 14.99999713897705,101.10001373291016 L14.999994277954102,101.10001373291016 C14.999977111816406,88.0108642578125 31.65497398376465,77.40000915527344 52.1999626159668,77.4000015258789 C72.74494934082031,77.39998626708984 89.39996337890625,88.01083374023438 89.39998626708984,101.0999984741211 C89.39998626708984,101.0999984741211 89.39998626708984,101.0999984741211 89.39998626708984,101.0999984741211 " stroke="none" fill="none" stroke-width="0.6" stroke-opacity="0" />
  <path d="M89.39998626708984,350.6999816894531 C89.39998626708984,363.78912353515625 72.74497985839844,374.3999938964844 52.20001220703125,374.3999938964844 C31.655027389526367,374.3999938964844 15.000014305114746,363.7891540527344 14.99999713897705,350.70001220703125 L14.999994277954102,350.70001220703125 C14.999977111816406,337.61083984375 31.65497398376465,327 52.1999626159668,327 C72.74494934082031,326.9999694824219 89.39996337890625,337.6108093261719 89.39998626708984,350.6999816894531 C89.39998626708984,350.6999816894531 89.39998626708984,350.6999816894531 89.39998626708984,350.6999816894531 " stroke="none" fill="#70AECC" fill-rule="evenodd" stroke-width="0" fill-opacity="1" />
  <text x="3.167022228240967" y="35.284881591796875" dx="0" dy="0" font-family="Segoe UI" font-size="6.600000157356266pt" fill="#000000" style="text-anchor:start" transform="matrix(0.750000 0.000000 0.000000 0.750000 15 327)">volcanic_hazards</text>
  <text x="82.72319030761719" y="35.284881591796875" dx="0" dy="0" font-family="Segoe UI" font-size="6.600000157356266pt" fill="#000000" style="text-anchor:start" transform="matrix(0.750000 0.000000 0.000000 0.750000 15 327)"> ...</text>
  <path d="M89.39998626708984,350.6999816894531 C89.39998626708984,363.78912353515625 72.74497985839844,374.3999938964844 52.20001220703125,374.3999938964844 C31.655027389526367,374.3999938964844 15.000014305114746,363.7891540527344 14.99999713897705,350.70001220703125 L14.999994277954102,350.70001220703125 C14.999977111816406,337.61083984375 31.65497398376465,327 52.1999626159668,327 C72.74494934082031,326.9999694824219 89.39996337890625,337.6108093261719 89.39998626708984,350.6999816894531 C89.39998626708984,350.6999816894531 89.39998626708984,350.6999816894531 89.39998626708984,350.6999816894531 " stroke="none" fill="none" stroke-width="0.6" stroke-opacity="0" />
  <path d="M89.39998626708984,288.29998779296875 C89.39998626708984,301.3891296386719 72.74497985839844,312 52.20001220703125,312 C31.655027389526367,312 15.000014305114746,301.38916015625 14.99999713897705,288.3000183105469 L14.999994277954102,288.3000183105469 C14.999977111816406,275.2108459472656 31.65497398376465,264.6000061035156 52.1999626159668,264.6000061035156 C72.74494934082031,264.5999755859375 89.39996337890625,275.2108154296875 89.39998626708984,288.29998779296875 C89.39998626708984,288.29998779296875 89.39998626708984,288.29998779296875 89.39998626708984,288.29998779296875 " stroke="none" fill="#70AECC" fill-rule="evenodd" stroke-width="0" fill-opacity="1" />
  <text x="2.205355644226074" y="35.284881591796875" dx="0" dy="0" font-family="Segoe UI" font-size="6.600000157356266pt" fill="#000000" style="text-anchor:start" transform="matrix(0.750000 0.000000 0.000000 0.750000 15 264.6000061035156)">Tsunami_Hazard_</text>
  <text x="83.84319305419922" y="35.284881591796875" dx="0" dy="0" font-family="Segoe UI" font-size="6.600000157356266pt" fill="#000000" style="text-anchor:start" transform="matrix(0.750000 0.000000 0.000000 0.750000 15 264.6000061035156)"> ...</text>
  <path d="M89.39998626708984,288.29998779296875 C89.39998626708984,301.3891296386719 72.74497985839844,312 52.20001220703125,312 C31.655027389526367,312 15.000014305114746,301.38916015625 14.99999713897705,288.3000183105469 L14.999994277954102,288.3000183105469 C14.999977111816406,275.2108459472656 31.65497398376465,264.6000061035156 52.1999626159668,264.6000061035156 C72.74494934082031,264.5999755859375 89.39996337890625,275.2108154296875 89.39998626708984,288.29998779296875 C89.39998626708984,288.29998779296875 89.39998626708984,288.29998779296875 89.39998626708984,288.29998779296875 " stroke="none" fill="none" stroke-width="0.6" stroke-opacity="0" />
  <path d="M89.39998626708984,225.8999786376953 C89.39998626708984,238.9891357421875 72.74497985839844,249.59999084472656 52.20001220703125,249.59999084472656 C31.655027389526367,249.59999084472656 15.000014305114746,238.98915100097656 14.99999713897705,225.90000915527344 L14.999994277954102,225.90000915527344 C14.999977111816406,212.81085205078125 31.65497398376465,202.1999969482422 52.1999626159668,202.1999969482422 C72.74494934082031,202.19998168945312 89.39996337890625,212.81082153320312 89.39998626708984,225.89999389648438 C89.39998626708984,225.89999389648438 89.39998626708984,225.89999389648438 89.39998626708984,225.89999389648438 " stroke="none" fill="#70AECC" fill-rule="evenodd" stroke-width="0" fill-opacity="1" />
  <text x="2.141022205352783" y="35.284881591796875" dx="0" dy="0" font-family="Segoe UI" font-size="6.600000157356266pt" fill="#000000" style="text-anchor:start" transform="matrix(0.750000 0.000000 0.000000 0.750000 15 202.1999969482422)">Seismogenic_Fau</text>
  <text x="83.46318817138672" y="35.284881591796875" dx="0" dy="0" font-family="Segoe UI" font-size="6.600000157356266pt" fill="#000000" style="text-anchor:start" transform="matrix(0.750000 0.000000 0.000000 0.750000 15 202.1999969482422)"> ...</text>
  <path d="M89.39998626708984,225.8999786376953 C89.39998626708984,238.9891357421875 72.74497985839844,249.59999084472656 52.20001220703125,249.59999084472656 C31.655027389526367,249.59999084472656 15.000014305114746,238.98915100097656 14.99999713897705,225.90000915527344 L14.999994277954102,225.90000915527344 C14.999977111816406,212.81085205078125 31.65497398376465,202.1999969482422 52.1999626159668,202.1999969482422 C72.74494934082031,202.19998168945312 89.39996337890625,212.81082153320312 89.39998626708984,225.89999389648438 C89.39998626708984,225.89999389648438 89.39998626708984,225.89999389648438 89.39998626708984,225.89999389648438 " stroke="none" fill="none" stroke-width="0.6" stroke-opacity="0" />
  <path d="M89.39998626708984,163.49998474121094 C89.39998626708984,176.58914184570312 72.74497985839844,187.1999969482422 52.20001220703125,187.1999969482422 C31.655027389526367,187.1999969482422 15.000014305114746,176.5891571044922 14.99999713897705,163.50001525878906 L14.999994277954102,163.50001525878906 C14.999977111816406,150.41085815429688 31.65497398376465,139.8000030517578 52.1999626159668,139.8000030517578 C72.74494934082031,139.79998779296875 89.39996337890625,150.41082763671875 89.39998626708984,163.5 C89.39998626708984,163.5 89.39998626708984,163.5 89.39998626708984,163.5 " stroke="none" fill="#70AECC" fill-rule="evenodd" stroke-width="0" fill-opacity="1" />
  <text x="2.911022186279297" y="35.284881591796875" dx="0" dy="0" font-family="Segoe UI" font-size="6.600000157356266pt" fill="#000000" style="text-anchor:start" transform="matrix(0.750000 0.000000 0.000000 0.750000 15 139.8000030517578)">Seattle_area_Cos</text>
  <text x="82.68985748291016" y="35.284881591796875" dx="0" dy="0" font-family="Segoe UI" font-size="6.600000157356266pt" fill="#000000" style="text-anchor:start" transform="matrix(0.750000 0.000000 0.000000 0.750000 15 139.8000030517578)"> ...</text>
  <path d="M89.39998626708984,163.49998474121094 C89.39998626708984,176.58914184570312 72.74497985839844,187.1999969482422 52.20001220703125,187.1999969482422 C31.655027389526367,187.1999969482422 15.000014305114746,176.5891571044922 14.99999713897705,163.50001525878906 L14.999994277954102,163.50001525878906 C14.999977111816406,150.41085815429688 31.65497398376465,139.8000030517578 52.1999626159668,139.8000030517578 C72.74494934082031,139.79998779296875 89.39996337890625,150.41082763671875 89.39998626708984,163.5 C89.39998626708984,163.5 89.39998626708984,163.5 89.39998626708984,163.5 " stroke="none" fill="none" stroke-width="0.6" stroke-opacity="0" />
  <path d="M112.9039306640625,15 L170.29605102539062,15 L170.29603576660156,15 C174.99261474609375,14.999992370605469 178.7999725341797,18.807327270507812 178.7999725341797,23.50393295288086 C178.7999725341797,23.503934860229492 178.7999725341797,23.503936767578125 178.7999725341797,23.503938674926758 L178.79998779296875,23.503936767578125 L178.79998779296875,53.89606475830078 L178.7999725341797,53.89605712890625 C178.7999725341797,58.5926513671875 174.99264526367188,62.399993896484375 170.29605102539062,62.39999771118164 L170.29605102539062,62.39999771118164 L112.9039306640625,62.39999771118164 L112.9039306640625,62.39999771118164 C108.20733642578125,62.39999771118164 104.39999389648438,58.59265899658203 104.39999389648438,53.89606475830078 L104.39999389648438,23.503936767578125 L104.39998626708984,23.50394058227539 C104.39998626708984,18.80734634399414 108.20732116699219,15.00000286102295 112.90391540527344,14.999999046325684 " stroke="none" fill="#F2E279" fill-rule="evenodd" stroke-width="0" fill-opacity="1" />
  <text x="32.65668869018555" y="35.284881591796875" dx="0" dy="0" font-family="Segoe UI" font-size="6.600000157356266pt" fill="#000000" style="text-anchor:start" transform="matrix(0.750000 0.000000 0.000000 0.750000 104.39999389648438 15)">Buffer</text>
  <path d="M112.9039306640625,15 L170.29605102539062,15 L170.29603576660156,15 C174.99261474609375,14.999992370605469 178.7999725341797,18.807327270507812 178.7999725341797,23.50393295288086 C178.7999725341797,23.503934860229492 178.7999725341797,23.503936767578125 178.7999725341797,23.503938674926758 L178.79998779296875,23.503936767578125 L178.79998779296875,53.89606475830078 L178.7999725341797,53.89605712890625 C178.7999725341797,58.5926513671875 174.99264526367188,62.399993896484375 170.29605102539062,62.39999771118164 L170.29605102539062,62.39999771118164 L112.9039306640625,62.39999771118164 L112.9039306640625,62.39999771118164 C108.20733642578125,62.39999771118164 104.39999389648438,58.59265899658203 104.39999389648438,53.89606475830078 L104.39999389648438,23.503936767578125 L104.39998626708984,23.50394058227539 C104.39998626708984,18.80734634399414 108.20732116699219,15.00000286102295 112.90391540527344,14.999999046325684 " stroke="none" fill="none" stroke-width="0.6" stroke-opacity="0" />
  <path d="M268.199951171875,38.69999313354492 C268.199951171875,51.78913879394531 251.5449676513672,62.399993896484375 231,62.39999771118164 C210.4550018310547,62.400001525878906 193.79998779296875,51.78915786743164 193.7999725341797,38.70001220703125 L193.7999725341797,38.700016021728516 C193.79995727539062,25.610868453979492 210.4549560546875,15.000008583068848 230.99993896484375,15 C251.54493713378906,14.99998950958252 268.199951171875,25.61083221435547 268.199951171875,38.69999694824219 C268.199951171875,38.69999694824219 268.199951171875,38.69999694824219 268.199951171875,38.69999694824219 " stroke="none" fill="#83CC7C" fill-rule="evenodd" stroke-width="0" fill-opacity="1" />
  <text x="1.472688913345337" y="35.284881591796875" dx="0" dy="0" font-family="Segoe UI" font-size="6.600000157356266pt" fill="#000000" style="text-anchor:start" transform="matrix(0.750000 0.000000 0.000000 0.750000 193.79998779296875 15)">Downtown_Seatt</text>
  <text x="83.19652557373047" y="35.284881591796875" dx="0" dy="0" font-family="Segoe UI" font-size="6.600000157356266pt" fill="#000000" style="text-anchor:start" transform="matrix(0.750000 0.000000 0.000000 0.750000 193.79998779296875 15)"> ...</text>
  <path d="M268.199951171875,38.69999313354492 C268.199951171875,51.78913879394531 251.5449676513672,62.399993896484375 231,62.39999771118164 C210.4550018310547,62.400001525878906 193.79998779296875,51.78915786743164 193.7999725341797,38.70001220703125 L193.7999725341797,38.700016021728516 C193.79995727539062,25.610868453979492 210.4549560546875,15.000008583068848 230.99993896484375,15 C251.54493713378906,14.99998950958252 268.199951171875,25.61083221435547 268.199951171875,38.69999694824219 C268.199951171875,38.69999694824219 268.199951171875,38.69999694824219 268.199951171875,38.69999694824219 " stroke="none" fill="none" stroke-width="0.6" stroke-opacity="0" />
  <path d="M291.70391845703125,77.4000015258789 L349.0960388183594,77.4000015258789 L349.09600830078125,77.4000015258789 C353.7926025390625,77.39999389648438 357.5999450683594,81.20732879638672 357.5999450683594,85.9039306640625 C357.5999450683594,85.9039306640625 357.5999450683594,85.90393829345703 357.5999450683594,85.90393829345703 L357.5999755859375,85.90393829345703 L357.5999755859375,116.29606628417969 L357.5999450683594,116.29605865478516 C357.5999450683594,120.9926528930664 353.7926330566406,124.79999542236328 349.0960388183594,124.79999542236328 L349.0960388183594,124.79999542236328 L291.70391845703125,124.79999542236328 L291.70391845703125,124.79999542236328 C287.00732421875,124.79999542236328 283.1999816894531,120.99266052246094 283.1999816894531,116.29606628417969 L283.1999816894531,85.90393829345703 L283.199951171875,85.90393829345703 C283.199951171875,81.20734405517578 287.0072937011719,77.4000015258789 291.7038879394531,77.39999389648438 " stroke="none" fill="#F2E279" fill-rule="evenodd" stroke-width="0" fill-opacity="1" />
  <text x="28.005189895629883" y="35.284881591796875" dx="0" dy="0" font-family="Segoe UI" font-size="6.600000157356266pt" fill="#000000" style="text-anchor:start" transform="matrix(0.750000 0.000000 0.000000 0.750000 283.1999816894531 77.4000015258789)">Intersect</text>
  <path d="M291.70391845703125,77.4000015258789 L349.0960388183594,77.4000015258789 L349.09600830078125,77.4000015258789 C353.7926025390625,77.39999389648438 357.5999450683594,81.20732879638672 357.5999450683594,85.9039306640625 C357.5999450683594,85.9039306640625 357.5999450683594,85.90393829345703 357.5999450683594,85.90393829345703 L357.5999755859375,85.90393829345703 L357.5999755859375,116.29606628417969 L357.5999450683594,116.29605865478516 C357.5999450683594,120.9926528930664 353.7926330566406,124.79999542236328 349.0960388183594,124.79999542236328 L349.0960388183594,124.79999542236328 L291.70391845703125,124.79999542236328 L291.70391845703125,124.79999542236328 C287.00732421875,124.79999542236328 283.1999816894531,120.99266052246094 283.1999816894531,116.29606628417969 L283.1999816894531,85.90393829345703 L283.199951171875,85.90393829345703 C283.199951171875,81.20734405517578 287.0072937011719,77.4000015258789 291.7038879394531,77.39999389648438 " stroke="none" fill="none" stroke-width="0.6" stroke-opacity="0" />
  <path d="M446.99993896484375,101.09999084472656 C446.99993896484375,114.18914031982422 430.3449401855469,124.79999542236328 409.79998779296875,124.79999542236328 C389.2549743652344,124.80000305175781 372.5999755859375,114.18915557861328 372.5999450683594,101.10001373291016 L372.5999450683594,101.10001373291016 C372.5999450683594,88.0108642578125 389.25494384765625,77.40000915527344 409.7999267578125,77.4000015258789 C430.34490966796875,77.39998626708984 446.99993896484375,88.01083374023438 446.99993896484375,101.0999984741211 C446.99993896484375,101.0999984741211 446.99993896484375,101.0999984741211 446.99993896484375,101.0999984741211 " stroke="none" fill="#83CC7C" fill-rule="evenodd" stroke-width="0" fill-opacity="1" />
  <text x="2.4476890563964844" y="35.284881591796875" dx="0" dy="0" font-family="Segoe UI" font-size="6.600000157356266pt" fill="#000000" style="text-anchor:start" transform="matrix(0.750000 0.000000 0.000000 0.750000 372.5999755859375 77.4000015258789)">Seattle_area_Good</text>
  <path d="M446.99993896484375,101.09999084472656 C446.99993896484375,114.18914031982422 430.3449401855469,124.79999542236328 409.79998779296875,124.79999542236328 C389.2549743652344,124.80000305175781 372.5999755859375,114.18915557861328 372.5999450683594,101.10001373291016 L372.5999450683594,101.10001373291016 C372.5999450683594,88.0108642578125 389.25494384765625,77.40000915527344 409.7999267578125,77.4000015258789 C430.34490966796875,77.39998626708984 446.99993896484375,88.01083374023438 446.99993896484375,101.0999984741211 C446.99993896484375,101.0999984741211 446.99993896484375,101.0999984741211 446.99993896484375,101.0999984741211 " stroke="none" fill="none" stroke-width="0.6" stroke-opacity="0" />
  <path d="M291.70391845703125,264.6000061035156 L349.0960388183594,264.6000061035156 L349.09600830078125,264.6000061035156 C353.7926025390625,264.5999755859375 357.5999450683594,268.4073181152344 357.5999450683594,273.1039123535156 C357.5999450683594,273.1039123535156 357.5999450683594,273.10394287109375 357.5999450683594,273.10394287109375 L357.5999755859375,273.10394287109375 L357.5999755859375,303.4960632324219 L357.5999450683594,303.4960632324219 C357.5999450683594,308.1926574707031 353.7926330566406,312 349.0960388183594,312 L349.0960388183594,312 L291.70391845703125,312 L291.70391845703125,312 C287.00732421875,312 283.1999816894531,308.1926574707031 283.1999816894531,303.4960632324219 L283.1999816894531,273.10394287109375 L283.199951171875,273.10394287109375 C283.199951171875,268.4073486328125 287.0072937011719,264.6000061035156 291.7038879394531,264.5999755859375 " stroke="none" fill="#F2E279" fill-rule="evenodd" stroke-width="0" fill-opacity="1" />
  <text x="31.969690322875977" y="35.284881591796875" dx="0" dy="0" font-family="Segoe UI" font-size="6.600000157356266pt" fill="#000000" style="text-anchor:start" transform="matrix(0.750000 0.000000 0.000000 0.750000 283.1999816894531 264.6000061035156)">Union</text>
  <path d="M291.70391845703125,264.6000061035156 L349.0960388183594,264.6000061035156 L349.09600830078125,264.6000061035156 C353.7926025390625,264.5999755859375 357.5999450683594,268.4073181152344 357.5999450683594,273.1039123535156 C357.5999450683594,273.1039123535156 357.5999450683594,273.10394287109375 357.5999450683594,273.10394287109375 L357.5999755859375,273.10394287109375 L357.5999755859375,303.4960632324219 L357.5999450683594,303.4960632324219 C357.5999450683594,308.1926574707031 353.7926330566406,312 349.0960388183594,312 L349.0960388183594,312 L291.70391845703125,312 L291.70391845703125,312 C287.00732421875,312 283.1999816894531,308.1926574707031 283.1999816894531,303.4960632324219 L283.1999816894531,273.10394287109375 L283.199951171875,273.10394287109375 C283.199951171875,268.4073486328125 287.0072937011719,264.6000061035156 291.7038879394531,264.5999755859375 " stroke="none" fill="none" stroke-width="0.6" stroke-opacity="0" />
  <path d="M446.99993896484375,288.29998779296875 C446.99993896484375,301.3891296386719 430.3449401855469,312 409.79998779296875,312 C389.2549743652344,312 372.5999755859375,301.38916015625 372.5999450683594,288.3000183105469 L372.5999450683594,288.3000183105469 C372.5999450683594,275.2108459472656 389.25494384765625,264.6000061035156 409.7999267578125,264.6000061035156 C430.34490966796875,264.5999755859375 446.99993896484375,275.2108154296875 446.99993896484375,288.29998779296875 C446.99993896484375,288.29998779296875 446.99993896484375,288.29998779296875 446.99993896484375,288.29998779296875 " stroke="none" fill="#83CC7C" fill-rule="evenodd" stroke-width="0" fill-opacity="1" />
  <text x="5.884355545043945" y="35.284881591796875" dx="0" dy="0" font-family="Segoe UI" font-size="6.600000157356266pt" fill="#000000" style="text-anchor:start" transform="matrix(0.750000 0.000000 0.000000 0.750000 372.5999755859375 264.6000061035156)">Seattle_Area_bad</text>
  <path d="M446.99993896484375,288.29998779296875 C446.99993896484375,301.3891296386719 430.3449401855469,312 409.79998779296875,312 C389.2549743652344,312 372.5999755859375,301.38916015625 372.5999450683594,288.3000183105469 L372.5999450683594,288.3000183105469 C372.5999450683594,275.2108459472656 389.25494384765625,264.6000061035156 409.7999267578125,264.6000061035156 C430.34490966796875,264.5999755859375 446.99993896484375,275.2108154296875 446.99993896484375,288.29998779296875 C446.99993896484375,288.29998779296875 446.99993896484375,288.29998779296875 446.99993896484375,288.29998779296875 " stroke="none" fill="none" stroke-width="0.6" stroke-opacity="0" />
</svg>