<?xml version="1.0"?>
<svg xmlns="http://www.w3.org/2000/svg" version="1.1" width="1281pt" height="942.5999755859375pt" viewBox="-230.70001029968253 -370.19999914169307 1281 942.5999999999999" preserveAspectRatio="none" xmlns:xlink="http://www.w3.org/1999/xlink">
  <defs>
  </defs>
  <path d="M178.79998779296875,101.0999984741211 L188.09999084472656,101.0999984741211 " stroke="#6E6E6E" fill="none" stroke-width="1" stroke-opacity="1" />
  <path d="M193.79998779296875,101.09999084472656 L188.0999755859375,103.31999206542969 L188.0999755859375,98.87999725341797 L193.79998779296875,101.09999084472656 " stroke="none" fill="#6E6E6E" fill-rule="evenodd" stroke-width="0" fill-opacity="1" />
  <path d="M193.79998779296875,101.09999084472656 L188.0999755859375,103.31999206542969 L188.0999755859375,98.87999725341797 L193.79998779296875,101.09999084472656 " stroke="#6E6E6E" fill="none" stroke-width="1" stroke-opacity="1" />
  <path d="M89.39999389648438,101.0999984741211 L98.69998931884766,101.0999984741211 " stroke="#6E6E6E" fill="none" stroke-width="1" stroke-opacity="1" />
  <path d="M104.39999389648438,101.09999084472656 L98.69998931884766,103.31999206542969 L98.69998931884766,98.87999725341797 L104.39999389648438,101.09999084472656 " stroke="none" fill="#6E6E6E" fill-rule="evenodd" stroke-width="0" fill-opacity="1" />
  <path d="M104.39999389648438,101.09999084472656 L98.69998931884766,103.31999206542969 L98.69998931884766,98.87999725341797 L104.39999389648438,101.09999084472656 " stroke="#6E6E6E" fill="none" stroke-width="1" stroke-opacity="1" />
  <path d="M357.5999755859375,101.0999984741211 L366.89996337890625,101.0999984741211 " stroke="#6E6E6E" fill="none" stroke-width="1" stroke-opacity="1" />
  <path d="M372.5999755859375,101.09999084472656 L366.89996337890625,103.31999206542969 L366.89996337890625,98.87999725341797 L372.5999755859375,101.09999084472656 " stroke="none" fill="#6E6E6E" fill-rule="evenodd" stroke-width="0" fill-opacity="1" />
  <path d="M372.5999755859375,101.09999084472656 L366.89996337890625,103.31999206542969 L366.89996337890625,98.87999725341797 L372.5999755859375,101.09999084472656 " stroke="#6E6E6E" fill="none" stroke-width="1" stroke-opacity="1" />
  <path d="M268.1999816894531,101.0999984741211 L277.5,101.0999984741211 " stroke="#6E6E6E" fill="none" stroke-width="1" stroke-opacity="1" />
  <path d="M283.1999816894531,101.09999084472656 L277.4999694824219,103.31999206542969 L277.4999694824219,98.87999725341797 L283.1999816894531,101.09999084472656 " stroke="none" fill="#6E6E6E" fill-rule="evenodd" stroke-width="0" fill-opacity="1" />
  <path d="M283.1999816894531,101.09999084472656 L277.4999694824219,103.31999206542969 L277.4999694824219,98.87999725341797 L283.1999816894531,101.09999084472656 " stroke="#6E6E6E" fill="none" stroke-width="1" stroke-opacity="1" />
  <path d="M536.3999633789062,38.69999694824219 L545.699951171875,38.69999694824219 " stroke="#6E6E6E" fill="none" stroke-width="1" stroke-opacity="1" />
  <path d="M551.3999633789062,38.69999694824219 L545.699951171875,40.91999816894531 L545.699951171875,36.47999954223633 L551.3999633789062,38.69999694824219 " stroke="none" fill="#6E6E6E" fill-rule="evenodd" stroke-width="0" fill-opacity="1" />
  <path d="M551.3999633789062,38.69999694824219 L545.699951171875,40.91999816894531 L545.699951171875,36.47999954223633 L551.3999633789062,38.69999694824219 " stroke="#6E6E6E" fill="none" stroke-width="1" stroke-opacity="1" />
  <path d="M536.3999633789062,163.5 L545.699951171875,163.5 " stroke="#6E6E6E" fill="none" stroke-width="1" stroke-opacity="1" />
  <path d="M551.3999633789062,163.49998474121094 L545.699951171875,165.71998596191406 L545.699951171875,161.27999877929688 L551.3999633789062,163.49998474121094 " stroke="none" fill="#6E6E6E" fill-rule="evenodd" stroke-width="0" fill-opacity="1" />
  <path d="M551.3999633789062,163.49998474121094 L545.699951171875,165.71998596191406 L545.699951171875,161.27999877929688 L551.3999633789062,163.49998474121094 " stroke="#6E6E6E" fill="none" stroke-width="1" stroke-opacity="1" />
  <path d="M447,98.0999984741211 L463.94549560546875,66.45401000976562 " stroke="#6E6E6E" fill="none" stroke-width="1" stroke-opacity="1" />
  <path d="M466.6361999511719,61.42906951904297 L465.902587890625,67.50196838378906 L461.9884033203125,65.40604400634766 L466.6361999511719,61.42906951904297 " stroke="none" fill="#6E6E6E" fill-rule="evenodd" stroke-width="0" fill-opacity="1" />
  <path d="M466.6361999511719,61.42906951904297 L465.902587890625,67.50196838378906 L461.9884033203125,65.40604400634766 L466.6361999511719,61.42906951904297 " stroke="#6E6E6E" fill="none" stroke-width="1" stroke-opacity="1" />
  <path d="M447,104.0999984741211 L463.94549560546875,135.7459716796875 " stroke="#6E6E6E" fill="none" stroke-width="1" stroke-opacity="1" />
  <path d="M466.63623046875,140.7709197998047 L461.9884338378906,136.7939453125 L465.902587890625,134.69801330566406 L466.63623046875,140.7709197998047 " stroke="none" fill="#6E6E6E" fill-rule="evenodd" stroke-width="0" fill-opacity="1" />
  <path d="M466.63623046875,140.7709197998047 L461.9884338378906,136.7939453125 L465.902587890625,134.69801330566406 L466.63623046875,140.7709197998047 " stroke="#6E6E6E" fill="none" stroke-width="1" stroke-opacity="1" />
  <path d="M715.199951171875,101.0999984741211 L724.5,101.0999984741211 " stroke="#6E6E6E" fill="none" stroke-width="1" stroke-opacity="1" />
  <path d="M730.199951171875,101.09999084472656 L724.4999389648438,103.31999206542969 L724.4999389648438,98.87999725341797 L730.199951171875,101.09999084472656 " stroke="none" fill="#6E6E6E" fill-rule="evenodd" stroke-width="0" fill-opacity="1" />
  <path d="M730.199951171875,101.09999084472656 L724.4999389648438,103.31999206542969 L724.4999389648438,98.87999725341797 L730.199951171875,101.09999084472656 " stroke="#6E6E6E" fill="none" stroke-width="1" stroke-opacity="1" />
  <path d="M715.199951171875,163.5 L724.5,163.5 " stroke="#6E6E6E" fill="none" stroke-width="1" stroke-opacity="1" />
  <path d="M730.199951171875,163.49998474121094 L724.4999389648438,165.71998596191406 L724.4999389648438,161.27999877929688 L730.199951171875,163.49998474121094 " stroke="none" fill="#6E6E6E" fill-rule="evenodd" stroke-width="0" fill-opacity="1" />
  <path d="M730.199951171875,163.49998474121094 L724.4999389648438,165.71998596191406 L724.4999389648438,161.27999877929688 L730.199951171875,163.49998474121094 " stroke="#6E6E6E" fill="none" stroke-width="1" stroke-opacity="1" />
  <path d="M625.7999267578125,160.5 L639.3348999023438,109.60851287841797 " stroke="#6E6E6E" fill="none" stroke-width="1" stroke-opacity="1" />
  <path d="M640.7999267578125,104.0999984741211 L641.4803466796875,110.1791000366211 L637.1895141601562,109.03791809082031 L640.7999267578125,104.0999984741211 " stroke="none" fill="#6E6E6E" fill-rule="evenodd" stroke-width="0" fill-opacity="1" />
  <path d="M640.7999267578125,104.0999984741211 L641.4803466796875,110.1791000366211 L637.1895141601562,109.03791809082031 L640.7999267578125,104.0999984741211 " stroke="#6E6E6E" fill="none" stroke-width="1" stroke-opacity="1" />
  <path d="M625.7999267578125,166.5 L635.0999755859375,166.5 " stroke="#6E6E6E" fill="none" stroke-width="1" stroke-opacity="1" />
  <path d="M640.7999877929688,166.49998474121094 L635.0999755859375,168.71998596191406 L635.0999755859375,164.27999877929688 L640.7999877929688,166.49998474121094 " stroke="none" fill="#6E6E6E" fill-rule="evenodd" stroke-width="0" fill-opacity="1" />
  <path d="M640.7999877929688,166.49998474121094 L635.0999755859375,168.71998596191406 L635.0999755859375,164.27999877929688 L640.7999877929688,166.49998474121094 " stroke="#6E6E6E" fill="none" stroke-width="1" stroke-opacity="1" />
  <path d="M625.7999267578125,104.0999984741211 L639.3348999023438,154.99148559570312 " stroke="#6E6E6E" fill="none" stroke-width="1" stroke-opacity="1" />
  <path d="M640.7999877929688,160.49998474121094 L637.1895141601562,155.56207275390625 L641.4803466796875,154.42088317871094 L640.7999877929688,160.49998474121094 " stroke="none" fill="#6E6E6E" fill-rule="evenodd" stroke-width="0" fill-opacity="1" />
  <path d="M640.7999877929688,160.49998474121094 L637.1895141601562,155.56207275390625 L641.4803466796875,154.42088317871094 L640.7999877929688,160.49998474121094 " stroke="#6E6E6E" fill="none" stroke-width="1" stroke-opacity="1" />
  <path d="M625.7999267578125,98.0999984741211 L635.0999755859375,98.0999984741211 " stroke="#6E6E6E" fill="none" stroke-width="1" stroke-opacity="1" />
  <path d="M640.7999877929688,98.09999084472656 L635.0999755859375,100.31999206542969 L635.0999755859375,95.87999725341797 L640.7999877929688,98.09999084472656 " stroke="none" fill="#6E6E6E" fill-rule="evenodd" stroke-width="0" fill-opacity="1" />
  <path d="M640.7999877929688,98.09999084472656 L635.0999755859375,100.31999206542969 L635.0999755859375,95.87999725341797 L640.7999877929688,98.09999084472656 " stroke="#6E6E6E" fill="none" stroke-width="1" stroke-opacity="1" />
  <path d="M89.39998626708984,101.09999084472656 C89.39998626708984,114.18914031982422 72.74497985839844,124.79999542236328 52.20001220703125,124.79999542236328 C31.655027389526367,124.80000305175781 15.000014305114746,114.18915557861328 14.99999713897705,101.10001373291016 L14.999994277954102,101.10001373291016 C14.999977111816406,88.0108642578125 31.65497398376465,77.40000915527344 52.1999626159668,77.4000015258789 C72.74494934082031,77.39998626708984 89.39996337890625,88.01083374023438 89.39998626708984,101.0999984741211 C89.39998626708984,101.0999984741211 89.39998626708984,101.0999984741211 89.39998626708984,101.0999984741211 " stroke="none" fill="#70AECC" fill-rule="evenodd" stroke-width="0" fill-opacity="1" />
  <text x="20.276355743408203" y="35.284881591796875" dx="0" dy="0" font-family="Segoe UI" font-size="6.600000157356266pt" fill="#000000" style="text-anchor:start" transform="matrix(0.750000 0.000000 0.000000 0.750000 15 77.4000015258789)">UT_Qfaults</text>
  <path d="M89.39998626708984,101.09999084472656 C89.39998626708984,114.18914031982422 72.74497985839844,124.79999542236328 52.20001220703125,124.79999542236328 C31.655027389526367,124.80000305175781 15.000014305114746,114.18915557861328 14.99999713897705,101.10001373291016 L14.999994277954102,101.10001373291016 C14.999977111816406,88.0108642578125 31.65497398376465,77.40000915527344 52.1999626159668,77.4000015258789 C72.74494934082031,77.39998626708984 89.39996337890625,88.01083374023438 89.39998626708984,101.0999984741211 C89.39998626708984,101.0999984741211 89.39998626708984,101.0999984741211 89.39998626708984,101.0999984741211 " stroke="none" fill="none" stroke-width="0.6" stroke-opacity="0" />
  <path d="M112.9039306640625,77.4000015258789 L170.29605102539062,77.4000015258789 L170.29603576660156,77.4000015258789 C174.99261474609375,77.39999389648438 178.7999725341797,81.20732879638672 178.7999725341797,85.9039306640625 C178.7999725341797,85.9039306640625 178.7999725341797,85.90393829345703 178.7999725341797,85.90393829345703 L178.79998779296875,85.90393829345703 L178.79998779296875,116.29606628417969 L178.7999725341797,116.29605865478516 C178.7999725341797,120.9926528930664 174.99264526367188,124.79999542236328 170.29605102539062,124.79999542236328 L170.29605102539062,124.79999542236328 L112.9039306640625,124.79999542236328 L112.9039306640625,124.79999542236328 C108.20733642578125,124.79999542236328 104.39999389648438,120.99266052246094 104.39999389648438,116.29606628417969 L104.39999389648438,85.90393829345703 L104.39998626708984,85.90393829345703 C104.39998626708984,81.20734405517578 108.20732116699219,77.4000015258789 112.90391540527344,77.39999389648438 " stroke="none" fill="#F2E279" fill-rule="evenodd" stroke-width="0" fill-opacity="1" />
  <text x="26.532690048217773" y="35.284881591796875" dx="0" dy="0" font-family="Segoe UI" font-size="6.600000157356266pt" fill="#000000" style="text-anchor:start" transform="matrix(0.750000 0.000000 0.000000 0.750000 104.39999389648438 77.4000015258789)">Dissolve</text>
  <path d="M112.9039306640625,77.4000015258789 L170.29605102539062,77.4000015258789 L170.29603576660156,77.4000015258789 C174.99261474609375,77.39999389648438 178.7999725341797,81.20732879638672 178.7999725341797,85.9039306640625 C178.7999725341797,85.9039306640625 178.7999725341797,85.90393829345703 178.7999725341797,85.90393829345703 L178.79998779296875,85.90393829345703 L178.79998779296875,116.29606628417969 L178.7999725341797,116.29605865478516 C178.7999725341797,120.9926528930664 174.99264526367188,124.79999542236328 170.29605102539062,124.79999542236328 L170.29605102539062,124.79999542236328 L112.9039306640625,124.79999542236328 L112.9039306640625,124.79999542236328 C108.20733642578125,124.79999542236328 104.39999389648438,120.99266052246094 104.39999389648438,116.29606628417969 L104.39999389648438,85.90393829345703 L104.39998626708984,85.90393829345703 C104.39998626708984,81.20734405517578 108.20732116699219,77.4000015258789 112.90391540527344,77.39999389648438 " stroke="none" fill="none" stroke-width="0.6" stroke-opacity="0" />
  <path d="M268.199951171875,101.09999084472656 C268.199951171875,114.18914031982422 251.5449676513672,124.79999542236328 231,124.79999542236328 C210.4550018310547,124.80000305175781 193.79998779296875,114.18915557861328 193.7999725341797,101.10001373291016 L193.7999725341797,101.10001373291016 C193.79995727539062,88.0108642578125 210.4549560546875,77.40000915527344 230.99993896484375,77.4000015258789 C251.54493713378906,77.39998626708984 268.199951171875,88.01083374023438 268.199951171875,101.0999984741211 C268.199951171875,101.0999984741211 268.199951171875,101.0999984741211 268.199951171875,101.0999984741211 " stroke="none" fill="#83CC7C" fill-rule="evenodd" stroke-width="0" fill-opacity="1" />
  <text x="0.8830223083496094" y="35.284881591796875" dx="0" dy="0" font-family="Segoe UI" font-size="6.600000157356266pt" fill="#000000" style="text-anchor:start" transform="matrix(0.750000 0.000000 0.000000 0.750000 193.79998779296875 77.4000015258789)">UT_Qfaults_Disso</text>
  <text x="83.85652160644531" y="35.284881591796875" dx="0" dy="0" font-family="Segoe UI" font-size="6.600000157356266pt" fill="#000000" style="text-anchor:start" transform="matrix(0.750000 0.000000 0.000000 0.750000 193.79998779296875 77.4000015258789)"> ...</text>
  <path d="M268.199951171875,101.09999084472656 C268.199951171875,114.18914031982422 251.5449676513672,124.79999542236328 231,124.79999542236328 C210.4550018310547,124.80000305175781 193.79998779296875,114.18915557861328 193.7999725341797,101.10001373291016 L193.7999725341797,101.10001373291016 C193.79995727539062,88.0108642578125 210.4549560546875,77.40000915527344 230.99993896484375,77.4000015258789 C251.54493713378906,77.39998626708984 268.199951171875,88.01083374023438 268.199951171875,101.0999984741211 C268.199951171875,101.0999984741211 268.199951171875,101.0999984741211 268.199951171875,101.0999984741211 " stroke="none" fill="none" stroke-width="0.6" stroke-opacity="0" />
  <path d="M291.70391845703125,77.4000015258789 L349.0960388183594,77.4000015258789 L349.09600830078125,77.4000015258789 C353.7926025390625,77.39999389648438 357.5999450683594,81.20732879638672 357.5999450683594,85.9039306640625 C357.5999450683594,85.9039306640625 357.5999450683594,85.90393829345703 357.5999450683594,85.90393829345703 L357.5999755859375,85.90393829345703 L357.5999755859375,116.29606628417969 L357.5999450683594,116.29605865478516 C357.5999450683594,120.9926528930664 353.7926330566406,124.79999542236328 349.0960388183594,124.79999542236328 L349.0960388183594,124.79999542236328 L291.70391845703125,124.79999542236328 L291.70391845703125,124.79999542236328 C287.00732421875,124.79999542236328 283.1999816894531,120.99266052246094 283.1999816894531,116.29606628417969 L283.1999816894531,85.90393829345703 L283.199951171875,85.90393829345703 C283.199951171875,81.20734405517578 287.0072937011719,77.4000015258789 291.7038879394531,77.39999389648438 " stroke="none" fill="#F2E279" fill-rule="evenodd" stroke-width="0" fill-opacity="1" />
  <text x="32.97768783569336" y="35.284881591796875" dx="0" dy="0" font-family="Segoe UI" font-size="6.600000157356266pt" fill="#000000" style="text-anchor:start" transform="matrix(0.750000 0.000000 0.000000 0.750000 283.1999816894531 77.4000015258789)">Select</text>
  <path d="M291.70391845703125,77.4000015258789 L349.0960388183594,77.4000015258789 L349.09600830078125,77.4000015258789 C353.7926025390625,77.39999389648438 357.5999450683594,81.20732879638672 357.5999450683594,85.9039306640625 C357.5999450683594,85.9039306640625 357.5999450683594,85.90393829345703 357.5999450683594,85.90393829345703 L357.5999755859375,85.90393829345703 L357.5999755859375,116.29606628417969 L357.5999450683594,116.29605865478516 C357.5999450683594,120.9926528930664 353.7926330566406,124.79999542236328 349.0960388183594,124.79999542236328 L349.0960388183594,124.79999542236328 L291.70391845703125,124.79999542236328 L291.70391845703125,124.79999542236328 C287.00732421875,124.79999542236328 283.1999816894531,120.99266052246094 283.1999816894531,116.29606628417969 L283.1999816894531,85.90393829345703 L283.199951171875,85.90393829345703 C283.199951171875,81.20734405517578 287.0072937011719,77.4000015258789 291.7038879394531,77.39999389648438 " stroke="none" fill="none" stroke-width="0.6" stroke-opacity="0" />
  <path d="M446.99993896484375,101.09999084472656 C446.99993896484375,114.18914031982422 430.3449401855469,124.79999542236328 409.79998779296875,124.79999542236328 C389.2549743652344,124.80000305175781 372.5999755859375,114.18915557861328 372.5999450683594,101.10001373291016 L372.5999450683594,101.10001373291016 C372.5999450683594,88.0108642578125 389.25494384765625,77.40000915527344 409.7999267578125,77.4000015258789 C430.34490966796875,77.39998626708984 446.99993896484375,88.01083374023438 446.99993896484375,101.0999984741211 C446.99993896484375,101.0999984741211 446.99993896484375,101.0999984741211 446.99993896484375,101.0999984741211 " stroke="none" fill="#83CC7C" fill-rule="evenodd" stroke-width="0" fill-opacity="1" />
  <text x="11.125688552856445" y="35.284881591796875" dx="0" dy="0" font-family="Segoe UI" font-size="6.600000157356266pt" fill="#000000" style="text-anchor:start" transform="matrix(0.750000 0.000000 0.000000 0.750000 372.5999755859375 77.4000015258789)">Wasatch_Fault</text>
  <path d="M446.99993896484375,101.09999084472656 C446.99993896484375,114.18914031982422 430.3449401855469,124.79999542236328 409.79998779296875,124.79999542236328 C389.2549743652344,124.80000305175781 372.5999755859375,114.18915557861328 372.5999450683594,101.10001373291016 L372.5999450683594,101.10001373291016 C372.5999450683594,88.0108642578125 389.25494384765625,77.40000915527344 409.7999267578125,77.4000015258789 C430.34490966796875,77.39998626708984 446.99993896484375,88.01083374023438 446.99993896484375,101.0999984741211 C446.99993896484375,101.0999984741211 446.99993896484375,101.0999984741211 446.99993896484375,101.0999984741211 " stroke="none" fill="none" stroke-width="0.6" stroke-opacity="0" />
  <path d="M470.5039367675781,15 L527.8960571289062,15 L527.89599609375,15 C532.5925903320312,14.999992370605469 536.3999633789062,18.807327270507812 536.3999633789062,23.50393295288086 C536.3999633789062,23.503934860229492 536.3999633789062,23.503936767578125 536.3999633789062,23.503938674926758 L536.3999633789062,23.503936767578125 L536.3999633789062,53.89606475830078 L536.3999633789062,53.89605712890625 C536.3999633789062,58.5926513671875 532.5926513671875,62.399993896484375 527.8960571289062,62.39999771118164 L527.8960571289062,62.39999771118164 L470.5039367675781,62.39999771118164 L470.5039367675781,62.39999771118164 C465.8073425292969,62.39999771118164 462,58.59265899658203 462,53.89606475830078 L462,23.503936767578125 L461.9999694824219,23.50394058227539 C461.9999694824219,18.80734634399414 465.80731201171875,15.00000286102295 470.50390625,14.999999046325684 " stroke="none" fill="#F2E279" fill-rule="evenodd" stroke-width="0" fill-opacity="1" />
  <text x="32.65668869018555" y="35.284881591796875" dx="0" dy="0" font-family="Segoe UI" font-size="6.600000157356266pt" fill="#000000" style="text-anchor:start" transform="matrix(0.750000 0.000000 0.000000 0.750000 462 15)">Buffer</text>
  <path d="M470.5039367675781,15 L527.8960571289062,15 L527.89599609375,15 C532.5925903320312,14.999992370605469 536.3999633789062,18.807327270507812 536.3999633789062,23.50393295288086 C536.3999633789062,23.503934860229492 536.3999633789062,23.503936767578125 536.3999633789062,23.503938674926758 L536.3999633789062,23.503936767578125 L536.3999633789062,53.89606475830078 L536.3999633789062,53.89605712890625 C536.3999633789062,58.5926513671875 532.5926513671875,62.399993896484375 527.8960571289062,62.39999771118164 L527.8960571289062,62.39999771118164 L470.5039367675781,62.39999771118164 L470.5039367675781,62.39999771118164 C465.8073425292969,62.39999771118164 462,58.59265899658203 462,53.89606475830078 L462,23.503936767578125 L461.9999694824219,23.50394058227539 C461.9999694824219,18.80734634399414 465.80731201171875,15.00000286102295 470.50390625,14.999999046325684 " stroke="none" fill="none" stroke-width="0.6" stroke-opacity="0" />
  <path d="M625.7999267578125,38.69999313354492 C625.7999267578125,51.78913879394531 609.1448974609375,62.399993896484375 588.5999755859375,62.39999771118164 C568.054931640625,62.400001525878906 551.3999633789062,51.78915786743164 551.39990234375,38.70001220703125 L551.39990234375,38.700016021728516 C551.39990234375,25.610868453979492 568.054931640625,15.000008583068848 588.5999145507812,15 C609.1448974609375,14.99998950958252 625.7999267578125,25.61083221435547 625.7999267578125,38.69999694824219 C625.7999267578125,38.69999694824219 625.7999267578125,38.69999694824219 625.7999267578125,38.69999694824219 " stroke="none" fill="#83CC7C" fill-rule="evenodd" stroke-width="0" fill-opacity="1" />
  <text x="-0.3909776210784912" y="35.284881591796875" dx="0" dy="0" font-family="Segoe UI" font-size="6.600000157356266pt" fill="#000000" style="text-anchor:start" transform="matrix(0.750000 0.000000 0.000000 0.750000 551.3999633789062 15)">Wasatch_Fault_1Mi</text>
  <path d="M625.7999267578125,38.69999313354492 C625.7999267578125,51.78913879394531 609.1448974609375,62.399993896484375 588.5999755859375,62.39999771118164 C568.054931640625,62.400001525878906 551.3999633789062,51.78915786743164 551.39990234375,38.70001220703125 L551.39990234375,38.700016021728516 C551.39990234375,25.610868453979492 568.054931640625,15.000008583068848 588.5999145507812,15 C609.1448974609375,14.99998950958252 625.7999267578125,25.61083221435547 625.7999267578125,38.69999694824219 C625.7999267578125,38.69999694824219 625.7999267578125,38.69999694824219 625.7999267578125,38.69999694824219 " stroke="none" fill="none" stroke-width="0.6" stroke-opacity="0" />
  <path d="M470.5039367675781,139.8000030517578 L527.8960571289062,139.8000030517578 L527.89599609375,139.8000030517578 C532.5925903320312,139.79998779296875 536.3999633789062,143.60733032226562 536.3999633789062,148.30392456054688 C536.3999633789062,148.30392456054688 536.3999633789062,148.30393981933594 536.3999633789062,148.30393981933594 L536.3999633789062,148.30393981933594 L536.3999633789062,178.69606018066406 L536.3999633789062,178.69606018066406 C536.3999633789062,183.3926544189453 532.5926513671875,187.1999969482422 527.8960571289062,187.1999969482422 L527.8960571289062,187.1999969482422 L470.5039367675781,187.1999969482422 L470.5039367675781,187.1999969482422 C465.8073425292969,187.1999969482422 462,183.3926544189453 462,178.69606018066406 L462,148.30393981933594 L461.9999694824219,148.30393981933594 C461.9999694824219,143.6073455810547 465.80731201171875,139.8000030517578 470.50390625,139.79998779296875 " stroke="none" fill="#F2E279" fill-rule="evenodd" stroke-width="0" fill-opacity="1" />
  <text x="24.866689682006836" y="35.284881591796875" dx="0" dy="0" font-family="Segoe UI" font-size="6.600000157356266pt" fill="#000000" style="text-anchor:start" transform="matrix(0.750000 0.000000 0.000000 0.750000 462 139.8000030517578)">Buffer (2)</text>
  <path d="M470.5039367675781,139.8000030517578 L527.8960571289062,139.8000030517578 L527.89599609375,139.8000030517578 C532.5925903320312,139.79998779296875 536.3999633789062,143.60733032226562 536.3999633789062,148.30392456054688 C536.3999633789062,148.30392456054688 536.3999633789062,148.30393981933594 536.3999633789062,148.30393981933594 L536.3999633789062,148.30393981933594 L536.3999633789062,178.69606018066406 L536.3999633789062,178.69606018066406 C536.3999633789062,183.3926544189453 532.5926513671875,187.1999969482422 527.8960571289062,187.1999969482422 L527.8960571289062,187.1999969482422 L470.5039367675781,187.1999969482422 L470.5039367675781,187.1999969482422 C465.8073425292969,187.1999969482422 462,183.3926544189453 462,178.69606018066406 L462,148.30393981933594 L461.9999694824219,148.30393981933594 C461.9999694824219,143.6073455810547 465.80731201171875,139.8000030517578 470.50390625,139.79998779296875 " stroke="none" fill="none" stroke-width="0.6" stroke-opacity="0" />
  <path d="M625.7999267578125,163.49998474121094 C625.7999267578125,176.58914184570312 609.1448974609375,187.1999969482422 588.5999755859375,187.1999969482422 C568.054931640625,187.1999969482422 551.3999633789062,176.5891571044922 551.39990234375,163.50001525878906 L551.39990234375,163.50001525878906 C551.39990234375,150.41085815429688 568.054931640625,139.8000030517578 588.5999145507812,139.8000030517578 C609.1448974609375,139.79998779296875 625.7999267578125,150.41082763671875 625.7999267578125,163.5 C625.7999267578125,163.5 625.7999267578125,163.5 625.7999267578125,163.5 " stroke="none" fill="#83CC7C" fill-rule="evenodd" stroke-width="0" fill-opacity="1" />
  <text x="1.8456889390945435" y="35.284881591796875" dx="0" dy="0" font-family="Segoe UI" font-size="6.600000157356266pt" fill="#000000" style="text-anchor:start" transform="matrix(0.750000 0.000000 0.000000 0.750000 551.3999633789062 139.8000030517578)">Wasatch_Fault_5</text>
  <text x="81.7498550415039" y="35.284881591796875" dx="0" dy="0" font-family="Segoe UI" font-size="6.600000157356266pt" fill="#000000" style="text-anchor:start" transform="matrix(0.750000 0.000000 0.000000 0.750000 551.3999633789062 139.8000030517578)"> ...</text>
  <path d="M625.7999267578125,163.49998474121094 C625.7999267578125,176.58914184570312 609.1448974609375,187.1999969482422 588.5999755859375,187.1999969482422 C568.054931640625,187.1999969482422 551.3999633789062,176.5891571044922 551.39990234375,163.50001525878906 L551.39990234375,163.50001525878906 C551.39990234375,150.41085815429688 568.054931640625,139.8000030517578 588.5999145507812,139.8000030517578 C609.1448974609375,139.79998779296875 625.7999267578125,150.41082763671875 625.7999267578125,163.5 C625.7999267578125,163.5 625.7999267578125,163.5 625.7999267578125,163.5 " stroke="none" fill="none" stroke-width="0.6" stroke-opacity="0" />
  <path d="M625.7999267578125,101.09999084472656 C625.7999267578125,114.18914031982422 609.1448974609375,124.79999542236328 588.5999755859375,124.79999542236328 C568.054931640625,124.80000305175781 551.3999633789062,114.18915557861328 551.39990234375,101.10001373291016 L551.39990234375,101.10001373291016 C551.39990234375,88.0108642578125 568.054931640625,77.40000915527344 588.5999145507812,77.4000015258789 C609.1448974609375,77.39998626708984 625.7999267578125,88.01083374023438 625.7999267578125,101.0999984741211 C625.7999267578125,101.0999984741211 625.7999267578125,101.0999984741211 625.7999267578125,101.0999984741211 " stroke="none" fill="#70AECC" fill-rule="evenodd" stroke-width="0" fill-opacity="1" />
  <text x="19.7576904296875" y="35.284881591796875" dx="0" dy="0" font-family="Segoe UI" font-size="6.600000157356266pt" fill="#000000" style="text-anchor:start" transform="matrix(0.750000 0.000000 0.000000 0.750000 551.3999633789062 77.4000015258789)">Schools_UT</text>
  <path d="M625.7999267578125,101.09999084472656 C625.7999267578125,114.18914031982422 609.1448974609375,124.79999542236328 588.5999755859375,124.79999542236328 C568.054931640625,124.80000305175781 551.3999633789062,114.18915557861328 551.39990234375,101.10001373291016 L551.39990234375,101.10001373291016 C551.39990234375,88.0108642578125 568.054931640625,77.40000915527344 588.5999145507812,77.4000015258789 C609.1448974609375,77.39998626708984 625.7999267578125,88.01083374023438 625.7999267578125,101.0999984741211 C625.7999267578125,101.0999984741211 625.7999267578125,101.0999984741211 625.7999267578125,101.0999984741211 " stroke="none" fill="none" stroke-width="0.6" stroke-opacity="0" />
  <path d="M649.3038940429688,77.4000015258789 L706.696044921875,77.4000015258789 L706.6959838867188,77.4000015258789 C711.392578125,77.39999389648438 715.199951171875,81.20732879638672 715.199951171875,85.9039306640625 C715.199951171875,85.9039306640625 715.199951171875,85.90393829345703 715.199951171875,85.90393829345703 L715.199951171875,85.90393829345703 L715.199951171875,116.29606628417969 L715.199951171875,116.29605865478516 C715.199951171875,120.9926528930664 711.3926391601562,124.79999542236328 706.696044921875,124.79999542236328 L706.696044921875,124.79999542236328 L649.3038940429688,124.79999542236328 L649.3038940429688,124.79999542236328 C644.6072998046875,124.79999542236328 640.7999877929688,120.99266052246094 640.7999877929688,116.29606628417969 L640.7999877929688,85.90393829345703 L640.7999267578125,85.90393829345703 C640.7999267578125,81.20734405517578 644.6072998046875,77.4000015258789 649.3038940429688,77.39999389648438 " stroke="none" fill="#F2E279" fill-rule="evenodd" stroke-width="0" fill-opacity="1" />
  <text x="37.60368728637695" y="35.284881591796875" dx="0" dy="0" font-family="Segoe UI" font-size="6.600000157356266pt" fill="#000000" style="text-anchor:start" transform="matrix(0.750000 0.000000 0.000000 0.750000 640.7999877929688 77.4000015258789)">Clip</text>
  <path d="M649.3038940429688,77.4000015258789 L706.696044921875,77.4000015258789 L706.6959838867188,77.4000015258789 C711.392578125,77.39999389648438 715.199951171875,81.20732879638672 715.199951171875,85.9039306640625 C715.199951171875,85.9039306640625 715.199951171875,85.90393829345703 715.199951171875,85.90393829345703 L715.199951171875,85.90393829345703 L715.199951171875,116.29606628417969 L715.199951171875,116.29605865478516 C715.199951171875,120.9926528930664 711.3926391601562,124.79999542236328 706.696044921875,124.79999542236328 L706.696044921875,124.79999542236328 L649.3038940429688,124.79999542236328 L649.3038940429688,124.79999542236328 C644.6072998046875,124.79999542236328 640.7999877929688,120.99266052246094 640.7999877929688,116.29606628417969 L640.7999877929688,85.90393829345703 L640.7999267578125,85.90393829345703 C640.7999267578125,81.20734405517578 644.6072998046875,77.4000015258789 649.3038940429688,77.39999389648438 " stroke="none" fill="none" stroke-width="0.6" stroke-opacity="0" />
  <path d="M804.5999145507812,101.09999084472656 C804.5999145507812,114.18914031982422 787.9448852539062,124.79999542236328 767.3999633789062,124.79999542236328 C746.8549194335938,124.80000305175781 730.199951171875,114.18915557861328 730.1998901367188,101.10001373291016 L730.1998901367188,101.10001373291016 C730.1998901367188,88.0108642578125 746.8549194335938,77.40000915527344 767.39990234375,77.4000015258789 C787.9448852539062,77.39998626708984 804.5999145507812,88.01083374023438 804.5999145507812,101.0999984741211 C804.5999145507812,101.0999984741211 804.5999145507812,101.0999984741211 804.5999145507812,101.0999984741211 " stroke="none" fill="#83CC7C" fill-rule="evenodd" stroke-width="0" fill-opacity="1" />
  <text x="2.914355754852295" y="35.284881591796875" dx="0" dy="0" font-family="Segoe UI" font-size="6.600000157356266pt" fill="#000000" style="text-anchor:start" transform="matrix(0.750000 0.000000 0.000000 0.750000 730.199951171875 77.4000015258789)">SchoolsNearWas</text>
  <text x="82.68985748291016" y="35.284881591796875" dx="0" dy="0" font-family="Segoe UI" font-size="6.600000157356266pt" fill="#000000" style="text-anchor:start" transform="matrix(0.750000 0.000000 0.000000 0.750000 730.199951171875 77.4000015258789)"> ...</text>
  <path d="M804.5999145507812,101.09999084472656 C804.5999145507812,114.18914031982422 787.9448852539062,124.79999542236328 767.3999633789062,124.79999542236328 C746.8549194335938,124.80000305175781 730.199951171875,114.18915557861328 730.1998901367188,101.10001373291016 L730.1998901367188,101.10001373291016 C730.1998901367188,88.0108642578125 746.8549194335938,77.40000915527344 767.39990234375,77.4000015258789 C787.9448852539062,77.39998626708984 804.5999145507812,88.01083374023438 804.5999145507812,101.0999984741211 C804.5999145507812,101.0999984741211 804.5999145507812,101.0999984741211 804.5999145507812,101.0999984741211 " stroke="none" fill="none" stroke-width="0.6" stroke-opacity="0" />
  <path d="M649.3038940429688,139.8000030517578 L706.696044921875,139.8000030517578 L706.6959838867188,139.8000030517578 C711.392578125,139.79998779296875 715.199951171875,143.60733032226562 715.199951171875,148.30392456054688 C715.199951171875,148.30392456054688 715.199951171875,148.30393981933594 715.199951171875,148.30393981933594 L715.199951171875,148.30393981933594 L715.199951171875,178.69606018066406 L715.199951171875,178.69606018066406 C715.199951171875,183.3926544189453 711.3926391601562,187.1999969482422 706.696044921875,187.1999969482422 L706.696044921875,187.1999969482422 L649.3038940429688,187.1999969482422 L649.3038940429688,187.1999969482422 C644.6072998046875,187.1999969482422 640.7999877929688,183.3926544189453 640.7999877929688,178.69606018066406 L640.7999877929688,148.30393981933594 L640.7999267578125,148.30393981933594 C640.7999267578125,143.6073455810547 644.6072998046875,139.8000030517578 649.3038940429688,139.79998779296875 " stroke="none" fill="#F2E279" fill-rule="evenodd" stroke-width="0" fill-opacity="1" />
  <text x="34.82518768310547" y="35.284881591796875" dx="0" dy="0" font-family="Segoe UI" font-size="6.600000157356266pt" fill="#000000" style="text-anchor:start" transform="matrix(0.750000 0.000000 0.000000 0.750000 640.7999877929688 139.8000030517578)">Erase</text>
  <path d="M649.3038940429688,139.8000030517578 L706.696044921875,139.8000030517578 L706.6959838867188,139.8000030517578 C711.392578125,139.79998779296875 715.199951171875,143.60733032226562 715.199951171875,148.30392456054688 C715.199951171875,148.30392456054688 715.199951171875,148.30393981933594 715.199951171875,148.30393981933594 L715.199951171875,148.30393981933594 L715.199951171875,178.69606018066406 L715.199951171875,178.69606018066406 C715.199951171875,183.3926544189453 711.3926391601562,187.1999969482422 706.696044921875,187.1999969482422 L706.696044921875,187.1999969482422 L649.3038940429688,187.1999969482422 L649.3038940429688,187.1999969482422 C644.6072998046875,187.1999969482422 640.7999877929688,183.3926544189453 640.7999877929688,178.69606018066406 L640.7999877929688,148.30393981933594 L640.7999267578125,148.30393981933594 C640.7999267578125,143.6073455810547 644.6072998046875,139.8000030517578 649.3038940429688,139.79998779296875 " stroke="none" fill="none" stroke-width="0.6" stroke-opacity="0" />
  <path d="M804.5999145507812,163.49998474121094 C804.5999145507812,176.58914184570312 787.9448852539062,187.1999969482422 767.3999633789062,187.1999969482422 C746.8549194335938,187.1999969482422 730.199951171875,176.5891571044922 730.1998901367188,163.50001525878906 L730.1998901367188,163.50001525878906 C730.1998901367188,150.41085815429688 746.8549194335938,139.8000030517578 767.39990234375,139.8000030517578 C787.9448852539062,139.79998779296875 804.5999145507812,150.41082763671875 804.5999145507812,163.5 C804.5999145507812,163.5 804.5999145507812,163.5 804.5999145507812,163.5 " stroke="none" fill="#83CC7C" fill-rule="evenodd" stroke-width="0" fill-opacity="1" />
  <text x="3.7676892280578613" y="35.284881591796875" dx="0" dy="0" font-family="Segoe UI" font-size="6.600000157356266pt" fill="#000000" style="text-anchor:start" transform="matrix(0.750000 0.000000 0.000000 0.750000 730.199951171875 139.8000030517578)">SchoolsNotNear</text>
  <text x="81.8365249633789" y="35.284881591796875" dx="0" dy="0" font-family="Segoe UI" font-size="6.600000157356266pt" fill="#000000" style="text-anchor:start" transform="matrix(0.750000 0.000000 0.000000 0.750000 730.199951171875 139.8000030517578)"> ...</text>
  <path d="M804.5999145507812,163.49998474121094 C804.5999145507812,176.58914184570312 787.9448852539062,187.1999969482422 767.3999633789062,187.1999969482422 C746.8549194335938,187.1999969482422 730.199951171875,176.5891571044922 730.1998901367188,163.50001525878906 L730.1998901367188,163.50001525878906 C730.1998901367188,150.41085815429688 746.8549194335938,139.8000030517578 767.39990234375,139.8000030517578 C787.9448852539062,139.79998779296875 804.5999145507812,150.41082763671875 804.5999145507812,163.5 C804.5999145507812,163.5 804.5999145507812,163.5 804.5999145507812,163.5 " stroke="none" fill="none" stroke-width="0.6" stroke-opacity="0" />
  <path d="M104.39998626708984,29.10000228881836 L179.3999786376953,29.10000228881836 L179.3999786376953,66.5999984741211 L104.39998626708984,66.5999984741211 L104.39998626708984,29.10000228881836 " stroke="none" fill="none" fill-rule="evenodd" stroke-width="0" fill-opacity="0" />
  <text x="16.339523315429688" y="31.029504776000977" dx="0" dy="0" font-family="Segoe UI" font-size="10.800000257492071pt" fill="#555555" style="text-anchor:start" transform="matrix(0.750000 0.000000 0.000000 0.750000 104.39998626708984 29.10000228881836)">MC #3</text>
  <path d="M104.39998626708984,29.10000228881836 L179.3999786376953,29.10000228881836 L179.3999786376953,66.5999984741211 L104.39998626708984,66.5999984741211 L104.39998626708984,29.10000228881836 " stroke="none" fill="none" stroke-width="0.6" stroke-opacity="0" />
  <path d="M286.20001220703125,31.350000381469727 L361.20001220703125,31.350000381469727 L361.20001220703125,68.8499984741211 L286.20001220703125,68.8499984741211 L286.20001220703125,31.350000381469727 " stroke="none" fill="none" fill-rule="evenodd" stroke-width="0" fill-opacity="0" />
  <text x="16.339523315429688" y="31.029504776000977" dx="0" dy="0" font-family="Segoe UI" font-size="10.800000257492071pt" fill="#555555" style="text-anchor:start" transform="matrix(0.750000 0.000000 0.000000 0.750000 286.20001220703125 31.350000381469727)">MC #4</text>
  <path d="M286.20001220703125,31.350000381469727 L361.20001220703125,31.350000381469727 L361.20001220703125,68.8499984741211 L286.20001220703125,68.8499984741211 L286.20001220703125,31.350000381469727 " stroke="none" fill="none" stroke-width="0.6" stroke-opacity="0" />
  <path d="M462,-26.850000381469727 L537,-26.850000381469727 L537,10.649999618530273 L462,10.649999618530273 L462,-26.850000381469727 " stroke="none" fill="none" fill-rule="evenodd" stroke-width="0" fill-opacity="0" />
  <text x="16.339523315429688" y="31.029504776000977" dx="0" dy="0" font-family="Segoe UI" font-size="10.800000257492071pt" fill="#555555" style="text-anchor:start" transform="matrix(0.750000 0.000000 0.000000 0.750000 462 -26.850000381469727)">MC #7</text>
  <path d="M462,-26.850000381469727 L537,-26.850000381469727 L537,10.649999618530273 L462,10.649999618530273 L462,-26.850000381469727 " stroke="none" fill="none" stroke-width="0.6" stroke-opacity="0" />
  <path d="M640.2000122070312,37.349998474121094 L715.2000122070312,37.349998474121094 L715.2000122070312,74.8499984741211 L640.2000122070312,74.8499984741211 L640.2000122070312,37.349998474121094 " stroke="none" fill="none" fill-rule="evenodd" stroke-width="0" fill-opacity="0" />
  <text x="16.339523315429688" y="31.029504776000977" dx="0" dy="0" font-family="Segoe UI" font-size="10.800000257492071pt" fill="#555555" style="text-anchor:start" transform="matrix(0.750000 0.000000 0.000000 0.750000 640.2000122070312 37.349998474121094)">MC #8</text>
  <path d="M640.2000122070312,37.349998474121094 L715.2000122070312,37.349998474121094 L715.2000122070312,74.8499984741211 L640.2000122070312,74.8499984741211 L640.2000122070312,37.349998474121094 " stroke="none" fill="none" stroke-width="0.6" stroke-opacity="0" />
  <path d="M640.2000122070312,192.75 L715.2000122070312,192.75 L715.2000122070312,230.25 L640.2000122070312,230.25 L640.2000122070312,192.75 " stroke="none" fill="none" fill-rule="evenodd" stroke-width="0" fill-opacity="0" />
  <text x="16.339523315429688" y="31.029504776000977" dx="0" dy="0" font-family="Segoe UI" font-size="10.800000257492071pt" fill="#555555" style="text-anchor:start" transform="matrix(0.750000 0.000000 0.000000 0.750000 640.2000122070312 192.75)">MC #9</text>
  <path d="M640.2000122070312,192.75 L715.2000122070312,192.75 L715.2000122070312,230.25 L640.2000122070312,230.25 L640.2000122070312,192.75 " stroke="none" fill="none" stroke-width="0.6" stroke-opacity="0" />
</svg>